G04 EAGLE Gerber RS-274X export*
G75*
%MOMM*%
%FSLAX34Y34*%
%LPD*%
%IN*%
%IPPOS*%
%AMOC8*
5,1,8,0,0,1.08239X$1,22.5*%
G01*
%ADD10C,0.254000*%


D10*
X0Y10000D02*
X38Y9128D01*
X152Y8264D01*
X341Y7412D01*
X603Y6580D01*
X937Y5774D01*
X1340Y5000D01*
X1808Y4264D01*
X2340Y3572D01*
X2929Y2929D01*
X3572Y2340D01*
X4264Y1808D01*
X5000Y1340D01*
X5774Y937D01*
X6580Y603D01*
X7412Y341D01*
X8264Y152D01*
X9128Y38D01*
X10000Y0D01*
X540000Y0D01*
X540872Y38D01*
X541736Y152D01*
X542588Y341D01*
X543420Y603D01*
X544226Y937D01*
X545000Y1340D01*
X545736Y1808D01*
X546428Y2340D01*
X547071Y2929D01*
X547660Y3572D01*
X548192Y4264D01*
X548660Y5000D01*
X549063Y5774D01*
X549397Y6580D01*
X549659Y7412D01*
X549848Y8264D01*
X549962Y9128D01*
X550000Y10000D01*
X550000Y440000D01*
X549962Y440872D01*
X549848Y441736D01*
X549659Y442588D01*
X549397Y443420D01*
X549063Y444226D01*
X548660Y445000D01*
X548192Y445736D01*
X547660Y446428D01*
X547071Y447071D01*
X546428Y447660D01*
X545736Y448192D01*
X545000Y448660D01*
X544226Y449063D01*
X543420Y449397D01*
X542588Y449659D01*
X541736Y449848D01*
X540872Y449962D01*
X540000Y450000D01*
X10000Y450000D01*
X9128Y449962D01*
X8264Y449848D01*
X7412Y449659D01*
X6580Y449397D01*
X5774Y449063D01*
X5000Y448660D01*
X4264Y448192D01*
X3572Y447660D01*
X2929Y447071D01*
X2340Y446428D01*
X1808Y445736D01*
X1340Y445000D01*
X937Y444226D01*
X603Y443420D01*
X341Y442588D01*
X152Y441736D01*
X38Y440872D01*
X0Y440000D01*
X0Y10000D01*
M02*
