G04 EAGLE Gerber RS-274X export*
G75*
%MOMM*%
%FSLAX34Y34*%
%LPD*%
%INSilkscreen Top*%
%IPPOS*%
%AMOC8*
5,1,8,0,0,1.08239X$1,22.5*%
G01*
%ADD10C,0.076200*%
%ADD11R,0.240000X0.040000*%
%ADD12R,0.160000X0.040000*%
%ADD13R,0.040000X0.040000*%
%ADD14R,0.080000X0.040000*%
%ADD15R,0.440000X0.040000*%
%ADD16R,0.560000X0.040000*%
%ADD17R,0.480000X0.040000*%
%ADD18R,0.680000X0.040000*%
%ADD19R,0.760000X0.040000*%
%ADD20R,0.840000X0.040000*%
%ADD21R,0.880000X0.040000*%
%ADD22R,0.920000X0.040000*%
%ADD23R,0.960000X0.040000*%
%ADD24R,1.000000X0.040000*%
%ADD25R,1.040000X0.040000*%
%ADD26R,0.640000X0.040000*%
%ADD27R,1.200000X0.040000*%
%ADD28R,1.160000X0.040000*%
%ADD29R,0.720000X0.040000*%
%ADD30R,0.800000X0.040000*%
%ADD31R,1.120000X0.040000*%
%ADD32R,1.320000X0.040000*%
%ADD33R,1.280000X0.040000*%
%ADD34R,1.360000X0.040000*%
%ADD35R,1.400000X0.040000*%
%ADD36R,1.440000X0.040000*%
%ADD37R,1.520000X0.040000*%
%ADD38R,1.240000X0.040000*%
%ADD39R,1.480000X0.040000*%
%ADD40R,1.560000X0.040000*%
%ADD41R,0.600000X0.040000*%
%ADD42R,1.600000X0.040000*%
%ADD43R,1.640000X0.040000*%
%ADD44R,1.680000X0.040000*%
%ADD45R,1.720000X0.040000*%
%ADD46R,1.080000X0.040000*%
%ADD47R,1.760000X0.040000*%
%ADD48R,1.800000X0.040000*%
%ADD49R,0.520000X0.040000*%
%ADD50R,0.120000X0.040000*%
%ADD51R,0.200000X0.040000*%
%ADD52R,0.320000X0.040000*%
%ADD53R,0.280000X0.040000*%
%ADD54R,0.400000X0.040000*%
%ADD55C,0.152400*%
%ADD56C,0.127000*%
%ADD57R,2.540000X0.508000*%
%ADD58R,0.762000X1.905000*%
%ADD59C,0.508000*%
%ADD60R,2.032000X0.508000*%
%ADD61C,0.015238*%
%ADD62C,0.025400*%
%ADD63C,0.070000*%
%ADD64R,1.800000X0.600000*%
%ADD65R,1.100000X0.600000*%


D10*
X14181Y425061D02*
X14181Y434459D01*
X16792Y434459D01*
X16893Y434457D01*
X16994Y434451D01*
X17095Y434441D01*
X17195Y434428D01*
X17295Y434410D01*
X17394Y434389D01*
X17492Y434363D01*
X17589Y434334D01*
X17685Y434302D01*
X17779Y434265D01*
X17872Y434225D01*
X17964Y434181D01*
X18053Y434134D01*
X18141Y434083D01*
X18227Y434029D01*
X18310Y433972D01*
X18392Y433912D01*
X18470Y433848D01*
X18547Y433782D01*
X18620Y433712D01*
X18691Y433640D01*
X18759Y433565D01*
X18824Y433487D01*
X18886Y433407D01*
X18945Y433325D01*
X19001Y433240D01*
X19053Y433153D01*
X19102Y433065D01*
X19148Y432974D01*
X19189Y432882D01*
X19228Y432788D01*
X19262Y432693D01*
X19293Y432597D01*
X19320Y432499D01*
X19344Y432401D01*
X19363Y432301D01*
X19379Y432201D01*
X19391Y432101D01*
X19399Y432000D01*
X19403Y431899D01*
X19403Y431797D01*
X19399Y431696D01*
X19391Y431595D01*
X19379Y431495D01*
X19363Y431395D01*
X19344Y431295D01*
X19320Y431197D01*
X19293Y431099D01*
X19262Y431003D01*
X19228Y430908D01*
X19189Y430814D01*
X19148Y430722D01*
X19102Y430631D01*
X19053Y430543D01*
X19001Y430456D01*
X18945Y430371D01*
X18886Y430289D01*
X18824Y430209D01*
X18759Y430131D01*
X18691Y430056D01*
X18620Y429984D01*
X18547Y429914D01*
X18470Y429848D01*
X18392Y429784D01*
X18310Y429724D01*
X18227Y429667D01*
X18141Y429613D01*
X18053Y429562D01*
X17964Y429515D01*
X17872Y429471D01*
X17779Y429431D01*
X17685Y429394D01*
X17589Y429362D01*
X17492Y429333D01*
X17394Y429307D01*
X17295Y429286D01*
X17195Y429268D01*
X17095Y429255D01*
X16994Y429245D01*
X16893Y429239D01*
X16792Y429237D01*
X16792Y429238D02*
X14181Y429238D01*
X17314Y429238D02*
X19402Y425061D01*
X22746Y425061D02*
X25878Y434459D01*
X29011Y425061D01*
X28228Y427411D02*
X23529Y427411D01*
X34413Y425061D02*
X34413Y434459D01*
X37023Y434459D02*
X31802Y434459D01*
X49257Y434459D02*
X49257Y425061D01*
X46647Y425061D01*
X46570Y425063D01*
X46494Y425069D01*
X46417Y425078D01*
X46341Y425091D01*
X46266Y425108D01*
X46192Y425128D01*
X46119Y425153D01*
X46048Y425180D01*
X45977Y425211D01*
X45909Y425246D01*
X45842Y425284D01*
X45777Y425325D01*
X45714Y425369D01*
X45654Y425416D01*
X45595Y425467D01*
X45540Y425520D01*
X45487Y425575D01*
X45436Y425634D01*
X45389Y425694D01*
X45345Y425757D01*
X45304Y425822D01*
X45266Y425889D01*
X45231Y425957D01*
X45200Y426028D01*
X45173Y426099D01*
X45148Y426172D01*
X45128Y426246D01*
X45111Y426321D01*
X45098Y426397D01*
X45089Y426474D01*
X45083Y426550D01*
X45081Y426627D01*
X45080Y426627D02*
X45080Y429760D01*
X45081Y429760D02*
X45083Y429837D01*
X45089Y429913D01*
X45098Y429990D01*
X45111Y430066D01*
X45128Y430141D01*
X45148Y430215D01*
X45173Y430288D01*
X45200Y430359D01*
X45231Y430430D01*
X45266Y430498D01*
X45304Y430565D01*
X45345Y430630D01*
X45389Y430693D01*
X45436Y430753D01*
X45487Y430812D01*
X45540Y430867D01*
X45595Y430920D01*
X45654Y430971D01*
X45714Y431018D01*
X45777Y431062D01*
X45842Y431103D01*
X45909Y431141D01*
X45977Y431176D01*
X46048Y431207D01*
X46119Y431234D01*
X46192Y431259D01*
X46266Y431279D01*
X46341Y431296D01*
X46417Y431309D01*
X46494Y431318D01*
X46570Y431324D01*
X46647Y431326D01*
X49257Y431326D01*
X53310Y431326D02*
X53310Y425061D01*
X53049Y433937D02*
X53049Y434459D01*
X53571Y434459D01*
X53571Y433937D01*
X53049Y433937D01*
X57796Y428716D02*
X60407Y427672D01*
X57796Y428716D02*
X57730Y428744D01*
X57665Y428777D01*
X57602Y428812D01*
X57541Y428851D01*
X57482Y428893D01*
X57426Y428938D01*
X57372Y428986D01*
X57321Y429037D01*
X57272Y429090D01*
X57227Y429147D01*
X57184Y429205D01*
X57145Y429265D01*
X57108Y429328D01*
X57076Y429393D01*
X57047Y429459D01*
X57021Y429526D01*
X56999Y429595D01*
X56981Y429665D01*
X56966Y429736D01*
X56955Y429807D01*
X56948Y429879D01*
X56945Y429951D01*
X56946Y430023D01*
X56951Y430096D01*
X56959Y430167D01*
X56971Y430239D01*
X56987Y430309D01*
X57007Y430378D01*
X57031Y430447D01*
X57058Y430514D01*
X57088Y430579D01*
X57122Y430643D01*
X57160Y430705D01*
X57200Y430765D01*
X57244Y430822D01*
X57291Y430877D01*
X57341Y430930D01*
X57393Y430979D01*
X57448Y431026D01*
X57505Y431070D01*
X57565Y431111D01*
X57627Y431148D01*
X57691Y431183D01*
X57756Y431213D01*
X57823Y431241D01*
X57891Y431264D01*
X57961Y431284D01*
X58031Y431300D01*
X58102Y431313D01*
X58174Y431321D01*
X58246Y431326D01*
X58318Y431327D01*
X58319Y431326D02*
X58470Y431322D01*
X58621Y431314D01*
X58772Y431303D01*
X58923Y431287D01*
X59073Y431267D01*
X59223Y431244D01*
X59372Y431217D01*
X59520Y431186D01*
X59668Y431151D01*
X59814Y431113D01*
X59960Y431070D01*
X60104Y431024D01*
X60247Y430975D01*
X60389Y430922D01*
X60529Y430865D01*
X60668Y430804D01*
X60407Y427672D02*
X60473Y427644D01*
X60538Y427611D01*
X60601Y427576D01*
X60662Y427537D01*
X60721Y427495D01*
X60777Y427450D01*
X60831Y427402D01*
X60882Y427351D01*
X60931Y427298D01*
X60976Y427241D01*
X61019Y427183D01*
X61058Y427123D01*
X61095Y427060D01*
X61127Y426995D01*
X61156Y426929D01*
X61182Y426862D01*
X61204Y426793D01*
X61222Y426723D01*
X61237Y426652D01*
X61248Y426581D01*
X61255Y426509D01*
X61258Y426437D01*
X61257Y426365D01*
X61252Y426292D01*
X61244Y426221D01*
X61232Y426149D01*
X61216Y426079D01*
X61196Y426010D01*
X61172Y425941D01*
X61145Y425874D01*
X61115Y425809D01*
X61081Y425745D01*
X61043Y425683D01*
X61003Y425623D01*
X60959Y425566D01*
X60912Y425511D01*
X60862Y425458D01*
X60810Y425409D01*
X60755Y425362D01*
X60698Y425318D01*
X60638Y425277D01*
X60576Y425240D01*
X60512Y425205D01*
X60447Y425175D01*
X60380Y425147D01*
X60312Y425124D01*
X60242Y425104D01*
X60172Y425088D01*
X60101Y425075D01*
X60029Y425067D01*
X59957Y425062D01*
X59885Y425061D01*
X59675Y425066D01*
X59466Y425077D01*
X59257Y425092D01*
X59049Y425112D01*
X58841Y425138D01*
X58634Y425168D01*
X58427Y425203D01*
X58222Y425243D01*
X58017Y425287D01*
X57814Y425337D01*
X57611Y425391D01*
X57410Y425451D01*
X57211Y425514D01*
X57013Y425583D01*
X64169Y431326D02*
X67302Y431326D01*
X65213Y434459D02*
X65213Y426627D01*
X65214Y426627D02*
X65216Y426550D01*
X65222Y426474D01*
X65231Y426397D01*
X65244Y426321D01*
X65261Y426246D01*
X65281Y426172D01*
X65306Y426099D01*
X65333Y426028D01*
X65364Y425957D01*
X65399Y425889D01*
X65437Y425822D01*
X65478Y425757D01*
X65522Y425694D01*
X65569Y425634D01*
X65620Y425575D01*
X65673Y425520D01*
X65728Y425467D01*
X65787Y425416D01*
X65847Y425369D01*
X65910Y425325D01*
X65975Y425284D01*
X66042Y425246D01*
X66110Y425211D01*
X66181Y425180D01*
X66252Y425153D01*
X66325Y425128D01*
X66399Y425108D01*
X66474Y425091D01*
X66550Y425078D01*
X66627Y425069D01*
X66703Y425063D01*
X66780Y425061D01*
X67302Y425061D01*
X70729Y427149D02*
X70729Y429238D01*
X70731Y429328D01*
X70737Y429417D01*
X70746Y429507D01*
X70760Y429596D01*
X70777Y429684D01*
X70798Y429771D01*
X70823Y429858D01*
X70852Y429943D01*
X70884Y430027D01*
X70919Y430109D01*
X70959Y430190D01*
X71001Y430269D01*
X71047Y430346D01*
X71097Y430421D01*
X71149Y430494D01*
X71205Y430565D01*
X71263Y430633D01*
X71325Y430698D01*
X71389Y430761D01*
X71456Y430821D01*
X71525Y430878D01*
X71597Y430932D01*
X71671Y430983D01*
X71747Y431031D01*
X71825Y431075D01*
X71905Y431116D01*
X71987Y431154D01*
X72070Y431188D01*
X72155Y431218D01*
X72241Y431245D01*
X72327Y431268D01*
X72415Y431287D01*
X72504Y431302D01*
X72593Y431314D01*
X72682Y431322D01*
X72772Y431326D01*
X72862Y431326D01*
X72952Y431322D01*
X73041Y431314D01*
X73130Y431302D01*
X73219Y431287D01*
X73307Y431268D01*
X73393Y431245D01*
X73479Y431218D01*
X73564Y431188D01*
X73647Y431154D01*
X73729Y431116D01*
X73809Y431075D01*
X73887Y431031D01*
X73963Y430983D01*
X74037Y430932D01*
X74109Y430878D01*
X74178Y430821D01*
X74245Y430761D01*
X74309Y430698D01*
X74371Y430633D01*
X74429Y430565D01*
X74485Y430494D01*
X74537Y430421D01*
X74587Y430346D01*
X74633Y430269D01*
X74675Y430190D01*
X74715Y430109D01*
X74750Y430027D01*
X74782Y429943D01*
X74811Y429858D01*
X74836Y429771D01*
X74857Y429684D01*
X74874Y429596D01*
X74888Y429507D01*
X74897Y429417D01*
X74903Y429328D01*
X74905Y429238D01*
X74906Y429238D02*
X74906Y427149D01*
X74905Y427149D02*
X74903Y427059D01*
X74897Y426970D01*
X74888Y426880D01*
X74874Y426791D01*
X74857Y426703D01*
X74836Y426616D01*
X74811Y426529D01*
X74782Y426444D01*
X74750Y426360D01*
X74715Y426278D01*
X74675Y426197D01*
X74633Y426118D01*
X74587Y426041D01*
X74537Y425966D01*
X74485Y425893D01*
X74429Y425822D01*
X74371Y425754D01*
X74309Y425689D01*
X74245Y425626D01*
X74178Y425566D01*
X74109Y425509D01*
X74037Y425455D01*
X73963Y425404D01*
X73887Y425356D01*
X73809Y425312D01*
X73729Y425271D01*
X73647Y425233D01*
X73564Y425199D01*
X73479Y425169D01*
X73393Y425142D01*
X73307Y425119D01*
X73219Y425100D01*
X73130Y425085D01*
X73041Y425073D01*
X72952Y425065D01*
X72862Y425061D01*
X72772Y425061D01*
X72682Y425065D01*
X72593Y425073D01*
X72504Y425085D01*
X72415Y425100D01*
X72327Y425119D01*
X72241Y425142D01*
X72155Y425169D01*
X72070Y425199D01*
X71987Y425233D01*
X71905Y425271D01*
X71825Y425312D01*
X71747Y425356D01*
X71671Y425404D01*
X71597Y425455D01*
X71525Y425509D01*
X71456Y425566D01*
X71389Y425626D01*
X71325Y425689D01*
X71263Y425754D01*
X71205Y425822D01*
X71149Y425893D01*
X71097Y425966D01*
X71047Y426041D01*
X71001Y426118D01*
X70959Y426197D01*
X70919Y426278D01*
X70884Y426360D01*
X70852Y426444D01*
X70823Y426529D01*
X70798Y426616D01*
X70777Y426703D01*
X70760Y426791D01*
X70746Y426880D01*
X70737Y426970D01*
X70731Y427059D01*
X70729Y427149D01*
X79010Y425061D02*
X79010Y431326D01*
X82143Y431326D01*
X82143Y430282D01*
X84286Y431326D02*
X87418Y431326D01*
X85330Y434459D02*
X85330Y426627D01*
X85332Y426550D01*
X85338Y426474D01*
X85347Y426397D01*
X85360Y426321D01*
X85377Y426246D01*
X85397Y426172D01*
X85422Y426099D01*
X85449Y426028D01*
X85480Y425957D01*
X85515Y425889D01*
X85553Y425822D01*
X85594Y425757D01*
X85638Y425694D01*
X85685Y425634D01*
X85736Y425575D01*
X85789Y425520D01*
X85844Y425467D01*
X85903Y425416D01*
X85963Y425369D01*
X86026Y425325D01*
X86091Y425284D01*
X86158Y425246D01*
X86226Y425211D01*
X86297Y425180D01*
X86368Y425153D01*
X86441Y425128D01*
X86515Y425108D01*
X86590Y425091D01*
X86666Y425078D01*
X86743Y425069D01*
X86819Y425063D01*
X86896Y425061D01*
X87418Y425061D01*
X90800Y425061D02*
X90800Y431326D01*
X90539Y433937D02*
X90539Y434459D01*
X91062Y434459D01*
X91062Y433937D01*
X90539Y433937D01*
X94503Y429238D02*
X94503Y427149D01*
X94504Y429238D02*
X94506Y429328D01*
X94512Y429417D01*
X94521Y429507D01*
X94535Y429596D01*
X94552Y429684D01*
X94573Y429771D01*
X94598Y429858D01*
X94627Y429943D01*
X94659Y430027D01*
X94694Y430109D01*
X94734Y430190D01*
X94776Y430269D01*
X94822Y430346D01*
X94872Y430421D01*
X94924Y430494D01*
X94980Y430565D01*
X95038Y430633D01*
X95100Y430698D01*
X95164Y430761D01*
X95231Y430821D01*
X95300Y430878D01*
X95372Y430932D01*
X95446Y430983D01*
X95522Y431031D01*
X95600Y431075D01*
X95680Y431116D01*
X95762Y431154D01*
X95845Y431188D01*
X95930Y431218D01*
X96016Y431245D01*
X96102Y431268D01*
X96190Y431287D01*
X96279Y431302D01*
X96368Y431314D01*
X96457Y431322D01*
X96547Y431326D01*
X96637Y431326D01*
X96727Y431322D01*
X96816Y431314D01*
X96905Y431302D01*
X96994Y431287D01*
X97082Y431268D01*
X97168Y431245D01*
X97254Y431218D01*
X97339Y431188D01*
X97422Y431154D01*
X97504Y431116D01*
X97584Y431075D01*
X97662Y431031D01*
X97738Y430983D01*
X97812Y430932D01*
X97884Y430878D01*
X97953Y430821D01*
X98020Y430761D01*
X98084Y430698D01*
X98146Y430633D01*
X98204Y430565D01*
X98260Y430494D01*
X98312Y430421D01*
X98362Y430346D01*
X98408Y430269D01*
X98450Y430190D01*
X98490Y430109D01*
X98525Y430027D01*
X98557Y429943D01*
X98586Y429858D01*
X98611Y429771D01*
X98632Y429684D01*
X98649Y429596D01*
X98663Y429507D01*
X98672Y429417D01*
X98678Y429328D01*
X98680Y429238D01*
X98680Y427149D01*
X98678Y427059D01*
X98672Y426970D01*
X98663Y426880D01*
X98649Y426791D01*
X98632Y426703D01*
X98611Y426616D01*
X98586Y426529D01*
X98557Y426444D01*
X98525Y426360D01*
X98490Y426278D01*
X98450Y426197D01*
X98408Y426118D01*
X98362Y426041D01*
X98312Y425966D01*
X98260Y425893D01*
X98204Y425822D01*
X98146Y425754D01*
X98084Y425689D01*
X98020Y425626D01*
X97953Y425566D01*
X97884Y425509D01*
X97812Y425455D01*
X97738Y425404D01*
X97662Y425356D01*
X97584Y425312D01*
X97504Y425271D01*
X97422Y425233D01*
X97339Y425199D01*
X97254Y425169D01*
X97168Y425142D01*
X97082Y425119D01*
X96994Y425100D01*
X96905Y425085D01*
X96816Y425073D01*
X96727Y425065D01*
X96637Y425061D01*
X96547Y425061D01*
X96457Y425065D01*
X96368Y425073D01*
X96279Y425085D01*
X96190Y425100D01*
X96102Y425119D01*
X96016Y425142D01*
X95930Y425169D01*
X95845Y425199D01*
X95762Y425233D01*
X95680Y425271D01*
X95600Y425312D01*
X95522Y425356D01*
X95446Y425404D01*
X95372Y425455D01*
X95300Y425509D01*
X95231Y425566D01*
X95164Y425626D01*
X95100Y425689D01*
X95038Y425754D01*
X94980Y425822D01*
X94924Y425893D01*
X94872Y425966D01*
X94822Y426041D01*
X94776Y426118D01*
X94734Y426197D01*
X94694Y426278D01*
X94659Y426360D01*
X94627Y426444D01*
X94598Y426529D01*
X94573Y426616D01*
X94552Y426703D01*
X94535Y426791D01*
X94521Y426880D01*
X94512Y426970D01*
X94506Y427059D01*
X94504Y427149D01*
X102733Y425061D02*
X102733Y431326D01*
X105343Y431326D01*
X105420Y431324D01*
X105496Y431318D01*
X105573Y431309D01*
X105649Y431296D01*
X105724Y431279D01*
X105798Y431259D01*
X105871Y431234D01*
X105942Y431207D01*
X106013Y431176D01*
X106081Y431141D01*
X106148Y431103D01*
X106213Y431062D01*
X106276Y431018D01*
X106336Y430971D01*
X106395Y430920D01*
X106450Y430867D01*
X106503Y430812D01*
X106554Y430753D01*
X106601Y430693D01*
X106645Y430630D01*
X106686Y430565D01*
X106724Y430498D01*
X106759Y430430D01*
X106790Y430359D01*
X106817Y430288D01*
X106842Y430215D01*
X106862Y430141D01*
X106879Y430066D01*
X106892Y429990D01*
X106901Y429914D01*
X106907Y429837D01*
X106909Y429760D01*
X106910Y429760D02*
X106910Y425061D01*
X17314Y409821D02*
X14181Y409821D01*
X17314Y409821D02*
X17403Y409823D01*
X17491Y409829D01*
X17579Y409838D01*
X17667Y409851D01*
X17754Y409868D01*
X17840Y409888D01*
X17925Y409913D01*
X18010Y409940D01*
X18093Y409972D01*
X18174Y410006D01*
X18254Y410045D01*
X18332Y410086D01*
X18409Y410131D01*
X18483Y410179D01*
X18556Y410230D01*
X18626Y410284D01*
X18693Y410342D01*
X18759Y410402D01*
X18821Y410464D01*
X18881Y410530D01*
X18939Y410597D01*
X18993Y410667D01*
X19044Y410740D01*
X19092Y410814D01*
X19137Y410891D01*
X19178Y410969D01*
X19217Y411049D01*
X19251Y411130D01*
X19283Y411213D01*
X19310Y411298D01*
X19335Y411383D01*
X19355Y411469D01*
X19372Y411556D01*
X19385Y411644D01*
X19394Y411732D01*
X19400Y411820D01*
X19402Y411909D01*
X19402Y412954D01*
X19400Y413043D01*
X19394Y413131D01*
X19385Y413219D01*
X19372Y413307D01*
X19355Y413394D01*
X19335Y413480D01*
X19310Y413565D01*
X19283Y413650D01*
X19251Y413733D01*
X19217Y413814D01*
X19178Y413894D01*
X19137Y413972D01*
X19092Y414049D01*
X19044Y414123D01*
X18993Y414196D01*
X18939Y414266D01*
X18881Y414333D01*
X18821Y414399D01*
X18759Y414461D01*
X18693Y414521D01*
X18626Y414579D01*
X18556Y414633D01*
X18483Y414684D01*
X18409Y414732D01*
X18332Y414777D01*
X18254Y414818D01*
X18174Y414857D01*
X18093Y414891D01*
X18010Y414923D01*
X17925Y414950D01*
X17840Y414975D01*
X17754Y414995D01*
X17667Y415012D01*
X17579Y415025D01*
X17491Y415034D01*
X17403Y415040D01*
X17314Y415042D01*
X14181Y415042D01*
X14181Y419219D01*
X19402Y419219D01*
X24108Y417914D02*
X24029Y417747D01*
X23954Y417578D01*
X23883Y417407D01*
X23816Y417235D01*
X23754Y417061D01*
X23695Y416885D01*
X23641Y416709D01*
X23591Y416531D01*
X23545Y416351D01*
X23503Y416171D01*
X23466Y415990D01*
X23433Y415808D01*
X23404Y415626D01*
X23380Y415442D01*
X23360Y415258D01*
X23345Y415074D01*
X23334Y414890D01*
X23327Y414705D01*
X23325Y414520D01*
X24108Y417914D02*
X24138Y417994D01*
X24171Y418073D01*
X24208Y418150D01*
X24248Y418226D01*
X24291Y418300D01*
X24337Y418372D01*
X24387Y418441D01*
X24439Y418509D01*
X24495Y418574D01*
X24553Y418637D01*
X24615Y418696D01*
X24678Y418754D01*
X24745Y418808D01*
X24813Y418859D01*
X24884Y418907D01*
X24957Y418952D01*
X25031Y418994D01*
X25108Y419032D01*
X25186Y419067D01*
X25265Y419099D01*
X25346Y419127D01*
X25428Y419151D01*
X25512Y419172D01*
X25595Y419189D01*
X25680Y419202D01*
X25765Y419211D01*
X25850Y419217D01*
X25936Y419219D01*
X26022Y419217D01*
X26107Y419211D01*
X26192Y419202D01*
X26277Y419189D01*
X26360Y419172D01*
X26444Y419151D01*
X26526Y419127D01*
X26607Y419099D01*
X26686Y419067D01*
X26764Y419032D01*
X26841Y418994D01*
X26915Y418952D01*
X26988Y418907D01*
X27059Y418859D01*
X27127Y418808D01*
X27194Y418754D01*
X27257Y418696D01*
X27319Y418637D01*
X27377Y418574D01*
X27433Y418509D01*
X27485Y418441D01*
X27535Y418372D01*
X27581Y418300D01*
X27624Y418226D01*
X27664Y418150D01*
X27701Y418073D01*
X27734Y417994D01*
X27764Y417914D01*
X27763Y417914D02*
X27842Y417747D01*
X27917Y417578D01*
X27988Y417407D01*
X28055Y417235D01*
X28117Y417061D01*
X28176Y416885D01*
X28230Y416709D01*
X28280Y416531D01*
X28326Y416351D01*
X28368Y416171D01*
X28405Y415990D01*
X28438Y415808D01*
X28467Y415626D01*
X28491Y415442D01*
X28511Y415258D01*
X28526Y415074D01*
X28537Y414890D01*
X28544Y414705D01*
X28546Y414520D01*
X23325Y414520D02*
X23327Y414335D01*
X23334Y414150D01*
X23345Y413966D01*
X23360Y413782D01*
X23380Y413598D01*
X23404Y413414D01*
X23433Y413232D01*
X23466Y413050D01*
X23503Y412869D01*
X23545Y412689D01*
X23591Y412509D01*
X23641Y412331D01*
X23695Y412155D01*
X23754Y411979D01*
X23816Y411805D01*
X23883Y411633D01*
X23954Y411462D01*
X24029Y411293D01*
X24108Y411126D01*
X24138Y411046D01*
X24171Y410967D01*
X24208Y410890D01*
X24248Y410814D01*
X24291Y410740D01*
X24337Y410668D01*
X24387Y410599D01*
X24440Y410531D01*
X24495Y410466D01*
X24554Y410403D01*
X24615Y410344D01*
X24678Y410286D01*
X24745Y410232D01*
X24813Y410181D01*
X24884Y410133D01*
X24957Y410088D01*
X25031Y410046D01*
X25108Y410008D01*
X25186Y409973D01*
X25265Y409941D01*
X25346Y409913D01*
X25428Y409889D01*
X25512Y409868D01*
X25595Y409851D01*
X25680Y409838D01*
X25765Y409829D01*
X25850Y409823D01*
X25936Y409821D01*
X27763Y411126D02*
X27842Y411293D01*
X27917Y411462D01*
X27988Y411633D01*
X28055Y411805D01*
X28117Y411979D01*
X28176Y412155D01*
X28230Y412331D01*
X28280Y412509D01*
X28326Y412689D01*
X28368Y412869D01*
X28405Y413050D01*
X28438Y413232D01*
X28467Y413414D01*
X28491Y413598D01*
X28511Y413782D01*
X28526Y413966D01*
X28537Y414150D01*
X28544Y414335D01*
X28546Y414520D01*
X27764Y411126D02*
X27734Y411046D01*
X27701Y410967D01*
X27664Y410890D01*
X27624Y410814D01*
X27581Y410740D01*
X27535Y410668D01*
X27485Y410599D01*
X27433Y410531D01*
X27377Y410466D01*
X27319Y410403D01*
X27257Y410344D01*
X27194Y410286D01*
X27127Y410232D01*
X27059Y410181D01*
X26988Y410133D01*
X26915Y410088D01*
X26841Y410046D01*
X26764Y410008D01*
X26686Y409973D01*
X26607Y409941D01*
X26526Y409913D01*
X26444Y409889D01*
X26360Y409868D01*
X26277Y409851D01*
X26192Y409838D01*
X26107Y409829D01*
X26022Y409823D01*
X25936Y409821D01*
X23847Y411909D02*
X28024Y417131D01*
X35341Y419220D02*
X35436Y419218D01*
X35530Y419212D01*
X35624Y419203D01*
X35718Y419190D01*
X35811Y419173D01*
X35903Y419152D01*
X35995Y419127D01*
X36085Y419099D01*
X36174Y419067D01*
X36262Y419032D01*
X36348Y418993D01*
X36433Y418951D01*
X36516Y418905D01*
X36597Y418856D01*
X36676Y418804D01*
X36753Y418749D01*
X36827Y418690D01*
X36899Y418629D01*
X36969Y418565D01*
X37036Y418498D01*
X37100Y418428D01*
X37161Y418356D01*
X37220Y418282D01*
X37275Y418205D01*
X37327Y418126D01*
X37376Y418045D01*
X37422Y417962D01*
X37464Y417877D01*
X37503Y417791D01*
X37538Y417703D01*
X37570Y417614D01*
X37598Y417524D01*
X37623Y417432D01*
X37644Y417340D01*
X37661Y417247D01*
X37674Y417153D01*
X37683Y417059D01*
X37689Y416965D01*
X37691Y416870D01*
X35341Y419219D02*
X35233Y419217D01*
X35124Y419211D01*
X35016Y419201D01*
X34909Y419188D01*
X34802Y419170D01*
X34695Y419149D01*
X34590Y419124D01*
X34485Y419095D01*
X34382Y419063D01*
X34280Y419026D01*
X34179Y418986D01*
X34080Y418943D01*
X33982Y418896D01*
X33886Y418845D01*
X33792Y418791D01*
X33700Y418734D01*
X33610Y418673D01*
X33522Y418609D01*
X33437Y418543D01*
X33354Y418473D01*
X33274Y418400D01*
X33196Y418324D01*
X33121Y418246D01*
X33049Y418165D01*
X32980Y418081D01*
X32914Y417995D01*
X32851Y417907D01*
X32792Y417816D01*
X32735Y417724D01*
X32682Y417629D01*
X32633Y417533D01*
X32587Y417434D01*
X32544Y417335D01*
X32505Y417233D01*
X32470Y417131D01*
X36907Y415042D02*
X36976Y415111D01*
X37042Y415182D01*
X37106Y415255D01*
X37167Y415331D01*
X37225Y415410D01*
X37279Y415490D01*
X37331Y415573D01*
X37379Y415657D01*
X37425Y415743D01*
X37466Y415831D01*
X37505Y415921D01*
X37540Y416012D01*
X37571Y416104D01*
X37599Y416197D01*
X37623Y416291D01*
X37643Y416386D01*
X37660Y416482D01*
X37673Y416579D01*
X37682Y416676D01*
X37688Y416773D01*
X37690Y416870D01*
X36907Y415042D02*
X32469Y409821D01*
X37690Y409821D01*
X41613Y417131D02*
X44223Y419219D01*
X44223Y409821D01*
X41613Y409821D02*
X46834Y409821D01*
X21199Y77747D02*
X21199Y70381D01*
X20381Y70381D02*
X22018Y70381D01*
X22018Y77747D02*
X20381Y77747D01*
X25249Y77747D02*
X25249Y70381D01*
X29342Y70381D02*
X25249Y77747D01*
X29342Y77747D02*
X29342Y70381D01*
X32887Y73246D02*
X37797Y73246D01*
X35342Y75701D02*
X35342Y70790D01*
X61199Y70381D02*
X61199Y77747D01*
X60381Y70381D02*
X62018Y70381D01*
X62018Y77747D02*
X60381Y77747D01*
X65249Y77747D02*
X65249Y70381D01*
X69342Y70381D02*
X65249Y77747D01*
X69342Y77747D02*
X69342Y70381D01*
X72887Y73246D02*
X77797Y73246D01*
X100381Y70381D02*
X100381Y77747D01*
X100381Y70381D02*
X103655Y70381D01*
X106721Y70381D02*
X109995Y70381D01*
X106721Y70381D02*
X106721Y77747D01*
X109995Y77747D01*
X109176Y74473D02*
X106721Y74473D01*
X113045Y77747D02*
X113045Y70381D01*
X113045Y77747D02*
X115091Y77747D01*
X115180Y77745D01*
X115269Y77739D01*
X115358Y77729D01*
X115446Y77716D01*
X115534Y77699D01*
X115621Y77677D01*
X115706Y77652D01*
X115791Y77624D01*
X115874Y77591D01*
X115956Y77555D01*
X116036Y77516D01*
X116114Y77473D01*
X116190Y77427D01*
X116265Y77377D01*
X116337Y77324D01*
X116406Y77268D01*
X116473Y77209D01*
X116538Y77148D01*
X116599Y77083D01*
X116658Y77016D01*
X116714Y76947D01*
X116767Y76875D01*
X116817Y76800D01*
X116863Y76724D01*
X116906Y76646D01*
X116945Y76566D01*
X116981Y76484D01*
X117014Y76401D01*
X117042Y76316D01*
X117067Y76231D01*
X117089Y76144D01*
X117106Y76056D01*
X117119Y75968D01*
X117129Y75879D01*
X117135Y75790D01*
X117137Y75701D01*
X117137Y72427D01*
X117135Y72338D01*
X117129Y72249D01*
X117119Y72160D01*
X117106Y72072D01*
X117089Y71984D01*
X117067Y71897D01*
X117042Y71812D01*
X117014Y71727D01*
X116981Y71644D01*
X116945Y71562D01*
X116906Y71482D01*
X116863Y71404D01*
X116817Y71328D01*
X116767Y71253D01*
X116714Y71181D01*
X116658Y71112D01*
X116599Y71045D01*
X116538Y70980D01*
X116473Y70919D01*
X116406Y70860D01*
X116337Y70804D01*
X116265Y70751D01*
X116190Y70701D01*
X116114Y70655D01*
X116036Y70612D01*
X115956Y70573D01*
X115874Y70537D01*
X115791Y70504D01*
X115706Y70476D01*
X115621Y70451D01*
X115534Y70429D01*
X115446Y70412D01*
X115358Y70399D01*
X115269Y70389D01*
X115180Y70383D01*
X115091Y70381D01*
X113045Y70381D01*
X120682Y73246D02*
X125593Y73246D01*
X140381Y70381D02*
X140381Y77747D01*
X140381Y70381D02*
X143655Y70381D01*
X146721Y70381D02*
X149995Y70381D01*
X146721Y70381D02*
X146721Y77747D01*
X149995Y77747D01*
X149176Y74473D02*
X146721Y74473D01*
X153045Y77747D02*
X153045Y70381D01*
X153045Y77747D02*
X155091Y77747D01*
X155180Y77745D01*
X155269Y77739D01*
X155358Y77729D01*
X155446Y77716D01*
X155534Y77699D01*
X155621Y77677D01*
X155706Y77652D01*
X155791Y77624D01*
X155874Y77591D01*
X155956Y77555D01*
X156036Y77516D01*
X156114Y77473D01*
X156190Y77427D01*
X156265Y77377D01*
X156337Y77324D01*
X156406Y77268D01*
X156473Y77209D01*
X156538Y77148D01*
X156599Y77083D01*
X156658Y77016D01*
X156714Y76947D01*
X156767Y76875D01*
X156817Y76800D01*
X156863Y76724D01*
X156906Y76646D01*
X156945Y76566D01*
X156981Y76484D01*
X157014Y76401D01*
X157042Y76316D01*
X157067Y76231D01*
X157089Y76144D01*
X157106Y76056D01*
X157119Y75968D01*
X157129Y75879D01*
X157135Y75790D01*
X157137Y75701D01*
X157137Y72427D01*
X157135Y72338D01*
X157129Y72249D01*
X157119Y72160D01*
X157106Y72072D01*
X157089Y71984D01*
X157067Y71897D01*
X157042Y71812D01*
X157014Y71727D01*
X156981Y71644D01*
X156945Y71562D01*
X156906Y71482D01*
X156863Y71404D01*
X156817Y71328D01*
X156767Y71253D01*
X156714Y71181D01*
X156658Y71112D01*
X156599Y71045D01*
X156538Y70980D01*
X156473Y70919D01*
X156406Y70860D01*
X156337Y70804D01*
X156265Y70751D01*
X156190Y70701D01*
X156114Y70655D01*
X156036Y70612D01*
X155956Y70573D01*
X155874Y70537D01*
X155791Y70504D01*
X155706Y70476D01*
X155621Y70451D01*
X155534Y70429D01*
X155446Y70412D01*
X155358Y70399D01*
X155269Y70389D01*
X155180Y70383D01*
X155091Y70381D01*
X153045Y70381D01*
X160682Y73246D02*
X165593Y73246D01*
X163138Y75701D02*
X163138Y70790D01*
X470381Y72427D02*
X470381Y75701D01*
X470383Y75790D01*
X470389Y75879D01*
X470399Y75968D01*
X470412Y76056D01*
X470429Y76144D01*
X470451Y76231D01*
X470476Y76316D01*
X470504Y76401D01*
X470537Y76484D01*
X470573Y76566D01*
X470612Y76646D01*
X470655Y76724D01*
X470701Y76800D01*
X470751Y76875D01*
X470804Y76947D01*
X470860Y77016D01*
X470919Y77083D01*
X470980Y77148D01*
X471045Y77209D01*
X471112Y77268D01*
X471181Y77324D01*
X471253Y77377D01*
X471328Y77427D01*
X471404Y77473D01*
X471482Y77516D01*
X471562Y77555D01*
X471644Y77591D01*
X471727Y77624D01*
X471812Y77652D01*
X471897Y77677D01*
X471984Y77699D01*
X472072Y77716D01*
X472160Y77729D01*
X472249Y77739D01*
X472338Y77745D01*
X472427Y77747D01*
X472516Y77745D01*
X472605Y77739D01*
X472694Y77729D01*
X472782Y77716D01*
X472870Y77699D01*
X472957Y77677D01*
X473042Y77652D01*
X473127Y77624D01*
X473210Y77591D01*
X473292Y77555D01*
X473372Y77516D01*
X473450Y77473D01*
X473526Y77427D01*
X473601Y77377D01*
X473673Y77324D01*
X473742Y77268D01*
X473809Y77209D01*
X473874Y77148D01*
X473935Y77083D01*
X473994Y77016D01*
X474050Y76947D01*
X474103Y76875D01*
X474153Y76800D01*
X474199Y76724D01*
X474242Y76646D01*
X474281Y76566D01*
X474317Y76484D01*
X474350Y76401D01*
X474378Y76316D01*
X474403Y76231D01*
X474425Y76144D01*
X474442Y76056D01*
X474455Y75968D01*
X474465Y75879D01*
X474471Y75790D01*
X474473Y75701D01*
X474473Y72427D01*
X474471Y72338D01*
X474465Y72249D01*
X474455Y72160D01*
X474442Y72072D01*
X474425Y71984D01*
X474403Y71897D01*
X474378Y71812D01*
X474350Y71727D01*
X474317Y71644D01*
X474281Y71562D01*
X474242Y71482D01*
X474199Y71404D01*
X474153Y71328D01*
X474103Y71253D01*
X474050Y71181D01*
X473994Y71112D01*
X473935Y71045D01*
X473874Y70980D01*
X473809Y70919D01*
X473742Y70860D01*
X473673Y70804D01*
X473601Y70751D01*
X473526Y70701D01*
X473450Y70655D01*
X473372Y70612D01*
X473292Y70573D01*
X473210Y70537D01*
X473127Y70504D01*
X473042Y70476D01*
X472957Y70451D01*
X472870Y70429D01*
X472782Y70412D01*
X472694Y70399D01*
X472605Y70389D01*
X472516Y70383D01*
X472427Y70381D01*
X472338Y70383D01*
X472249Y70389D01*
X472160Y70399D01*
X472072Y70412D01*
X471984Y70429D01*
X471897Y70451D01*
X471812Y70476D01*
X471727Y70504D01*
X471644Y70537D01*
X471562Y70573D01*
X471482Y70612D01*
X471404Y70655D01*
X471328Y70701D01*
X471253Y70751D01*
X471181Y70804D01*
X471112Y70860D01*
X471045Y70919D01*
X470980Y70980D01*
X470919Y71045D01*
X470860Y71112D01*
X470804Y71181D01*
X470751Y71253D01*
X470701Y71328D01*
X470655Y71404D01*
X470612Y71482D01*
X470573Y71562D01*
X470537Y71644D01*
X470504Y71727D01*
X470476Y71812D01*
X470451Y71897D01*
X470429Y71984D01*
X470412Y72072D01*
X470399Y72160D01*
X470389Y72249D01*
X470383Y72338D01*
X470381Y72427D01*
X477940Y72427D02*
X477940Y77747D01*
X477940Y72427D02*
X477942Y72338D01*
X477948Y72249D01*
X477958Y72160D01*
X477971Y72072D01*
X477988Y71984D01*
X478010Y71897D01*
X478035Y71812D01*
X478063Y71727D01*
X478096Y71644D01*
X478132Y71562D01*
X478171Y71482D01*
X478214Y71404D01*
X478260Y71328D01*
X478310Y71253D01*
X478363Y71181D01*
X478419Y71112D01*
X478478Y71045D01*
X478539Y70980D01*
X478604Y70919D01*
X478671Y70860D01*
X478740Y70804D01*
X478812Y70751D01*
X478887Y70701D01*
X478963Y70655D01*
X479041Y70612D01*
X479121Y70573D01*
X479203Y70537D01*
X479286Y70504D01*
X479371Y70476D01*
X479456Y70451D01*
X479543Y70429D01*
X479631Y70412D01*
X479719Y70399D01*
X479808Y70389D01*
X479897Y70383D01*
X479986Y70381D01*
X480075Y70383D01*
X480164Y70389D01*
X480253Y70399D01*
X480341Y70412D01*
X480429Y70429D01*
X480516Y70451D01*
X480601Y70476D01*
X480686Y70504D01*
X480769Y70537D01*
X480851Y70573D01*
X480931Y70612D01*
X481009Y70655D01*
X481085Y70701D01*
X481160Y70751D01*
X481232Y70804D01*
X481301Y70860D01*
X481368Y70919D01*
X481433Y70980D01*
X481494Y71045D01*
X481553Y71112D01*
X481609Y71181D01*
X481662Y71253D01*
X481712Y71328D01*
X481758Y71404D01*
X481801Y71482D01*
X481840Y71562D01*
X481876Y71644D01*
X481909Y71727D01*
X481937Y71812D01*
X481962Y71897D01*
X481984Y71984D01*
X482001Y72072D01*
X482014Y72160D01*
X482024Y72249D01*
X482030Y72338D01*
X482032Y72427D01*
X482032Y77747D01*
X487057Y77747D02*
X487057Y70381D01*
X485011Y77747D02*
X489104Y77747D01*
X491917Y73246D02*
X496828Y73246D01*
X494373Y75701D02*
X494373Y70790D01*
X510381Y72427D02*
X510381Y75701D01*
X510383Y75790D01*
X510389Y75879D01*
X510399Y75968D01*
X510412Y76056D01*
X510429Y76144D01*
X510451Y76231D01*
X510476Y76316D01*
X510504Y76401D01*
X510537Y76484D01*
X510573Y76566D01*
X510612Y76646D01*
X510655Y76724D01*
X510701Y76800D01*
X510751Y76875D01*
X510804Y76947D01*
X510860Y77016D01*
X510919Y77083D01*
X510980Y77148D01*
X511045Y77209D01*
X511112Y77268D01*
X511181Y77324D01*
X511253Y77377D01*
X511328Y77427D01*
X511404Y77473D01*
X511482Y77516D01*
X511562Y77555D01*
X511644Y77591D01*
X511727Y77624D01*
X511812Y77652D01*
X511897Y77677D01*
X511984Y77699D01*
X512072Y77716D01*
X512160Y77729D01*
X512249Y77739D01*
X512338Y77745D01*
X512427Y77747D01*
X512516Y77745D01*
X512605Y77739D01*
X512694Y77729D01*
X512782Y77716D01*
X512870Y77699D01*
X512957Y77677D01*
X513042Y77652D01*
X513127Y77624D01*
X513210Y77591D01*
X513292Y77555D01*
X513372Y77516D01*
X513450Y77473D01*
X513526Y77427D01*
X513601Y77377D01*
X513673Y77324D01*
X513742Y77268D01*
X513809Y77209D01*
X513874Y77148D01*
X513935Y77083D01*
X513994Y77016D01*
X514050Y76947D01*
X514103Y76875D01*
X514153Y76800D01*
X514199Y76724D01*
X514242Y76646D01*
X514281Y76566D01*
X514317Y76484D01*
X514350Y76401D01*
X514378Y76316D01*
X514403Y76231D01*
X514425Y76144D01*
X514442Y76056D01*
X514455Y75968D01*
X514465Y75879D01*
X514471Y75790D01*
X514473Y75701D01*
X514473Y72427D01*
X514471Y72338D01*
X514465Y72249D01*
X514455Y72160D01*
X514442Y72072D01*
X514425Y71984D01*
X514403Y71897D01*
X514378Y71812D01*
X514350Y71727D01*
X514317Y71644D01*
X514281Y71562D01*
X514242Y71482D01*
X514199Y71404D01*
X514153Y71328D01*
X514103Y71253D01*
X514050Y71181D01*
X513994Y71112D01*
X513935Y71045D01*
X513874Y70980D01*
X513809Y70919D01*
X513742Y70860D01*
X513673Y70804D01*
X513601Y70751D01*
X513526Y70701D01*
X513450Y70655D01*
X513372Y70612D01*
X513292Y70573D01*
X513210Y70537D01*
X513127Y70504D01*
X513042Y70476D01*
X512957Y70451D01*
X512870Y70429D01*
X512782Y70412D01*
X512694Y70399D01*
X512605Y70389D01*
X512516Y70383D01*
X512427Y70381D01*
X512338Y70383D01*
X512249Y70389D01*
X512160Y70399D01*
X512072Y70412D01*
X511984Y70429D01*
X511897Y70451D01*
X511812Y70476D01*
X511727Y70504D01*
X511644Y70537D01*
X511562Y70573D01*
X511482Y70612D01*
X511404Y70655D01*
X511328Y70701D01*
X511253Y70751D01*
X511181Y70804D01*
X511112Y70860D01*
X511045Y70919D01*
X510980Y70980D01*
X510919Y71045D01*
X510860Y71112D01*
X510804Y71181D01*
X510751Y71253D01*
X510701Y71328D01*
X510655Y71404D01*
X510612Y71482D01*
X510573Y71562D01*
X510537Y71644D01*
X510504Y71727D01*
X510476Y71812D01*
X510451Y71897D01*
X510429Y71984D01*
X510412Y72072D01*
X510399Y72160D01*
X510389Y72249D01*
X510383Y72338D01*
X510381Y72427D01*
X517940Y72427D02*
X517940Y77747D01*
X517940Y72427D02*
X517942Y72338D01*
X517948Y72249D01*
X517958Y72160D01*
X517971Y72072D01*
X517988Y71984D01*
X518010Y71897D01*
X518035Y71812D01*
X518063Y71727D01*
X518096Y71644D01*
X518132Y71562D01*
X518171Y71482D01*
X518214Y71404D01*
X518260Y71328D01*
X518310Y71253D01*
X518363Y71181D01*
X518419Y71112D01*
X518478Y71045D01*
X518539Y70980D01*
X518604Y70919D01*
X518671Y70860D01*
X518740Y70804D01*
X518812Y70751D01*
X518887Y70701D01*
X518963Y70655D01*
X519041Y70612D01*
X519121Y70573D01*
X519203Y70537D01*
X519286Y70504D01*
X519371Y70476D01*
X519456Y70451D01*
X519543Y70429D01*
X519631Y70412D01*
X519719Y70399D01*
X519808Y70389D01*
X519897Y70383D01*
X519986Y70381D01*
X520075Y70383D01*
X520164Y70389D01*
X520253Y70399D01*
X520341Y70412D01*
X520429Y70429D01*
X520516Y70451D01*
X520601Y70476D01*
X520686Y70504D01*
X520769Y70537D01*
X520851Y70573D01*
X520931Y70612D01*
X521009Y70655D01*
X521085Y70701D01*
X521160Y70751D01*
X521232Y70804D01*
X521301Y70860D01*
X521368Y70919D01*
X521433Y70980D01*
X521494Y71045D01*
X521553Y71112D01*
X521609Y71181D01*
X521662Y71253D01*
X521712Y71328D01*
X521758Y71404D01*
X521801Y71482D01*
X521840Y71562D01*
X521876Y71644D01*
X521909Y71727D01*
X521937Y71812D01*
X521962Y71897D01*
X521984Y71984D01*
X522001Y72072D01*
X522014Y72160D01*
X522024Y72249D01*
X522030Y72338D01*
X522032Y72427D01*
X522032Y77747D01*
X527057Y77747D02*
X527057Y70381D01*
X525011Y77747D02*
X529104Y77747D01*
X531917Y73246D02*
X536828Y73246D01*
D11*
X328200Y20400D03*
D12*
X371800Y20400D03*
D13*
X373200Y20400D03*
X390800Y20400D03*
D14*
X391800Y20400D03*
D13*
X392800Y20400D03*
D11*
X435400Y20400D03*
D15*
X328400Y20800D03*
D16*
X372600Y20800D03*
X391400Y20800D03*
D15*
X435600Y20800D03*
D17*
X328600Y21200D03*
D18*
X372800Y21200D03*
X391200Y21200D03*
D17*
X435800Y21200D03*
X328200Y21600D03*
D19*
X372800Y21600D03*
X390800Y21600D03*
D17*
X435400Y21600D03*
X328600Y22000D03*
D20*
X373200Y22000D03*
X390800Y22000D03*
D15*
X435600Y22000D03*
D17*
X328200Y22400D03*
D21*
X373400Y22400D03*
X390600Y22400D03*
D17*
X435400Y22400D03*
X328600Y22800D03*
D22*
X373600Y22800D03*
X390400Y22800D03*
D17*
X435800Y22800D03*
X328200Y23200D03*
D23*
X373800Y23200D03*
X390200Y23200D03*
D17*
X435400Y23200D03*
X328600Y23600D03*
D24*
X374000Y23600D03*
X390000Y23600D03*
D15*
X435600Y23600D03*
D17*
X328200Y24000D03*
D25*
X374200Y24000D03*
D24*
X389600Y24000D03*
D17*
X435400Y24000D03*
X328600Y24400D03*
D12*
X370200Y24400D03*
D13*
X371600Y24400D03*
D19*
X376000Y24400D03*
X388000Y24400D03*
D11*
X393400Y24400D03*
D17*
X435800Y24400D03*
X328200Y24800D03*
D18*
X376800Y24800D03*
X387200Y24800D03*
D17*
X435400Y24800D03*
X328600Y25200D03*
D26*
X377400Y25200D03*
X386600Y25200D03*
D15*
X435600Y25200D03*
D17*
X328200Y25600D03*
D26*
X377800Y25600D03*
X386200Y25600D03*
D17*
X435400Y25600D03*
X328600Y26000D03*
D26*
X378200Y26000D03*
X385800Y26000D03*
D17*
X435800Y26000D03*
X328200Y26400D03*
D26*
X378600Y26400D03*
X385400Y26400D03*
D17*
X435400Y26400D03*
X328600Y26800D03*
D27*
X382200Y26800D03*
D15*
X435600Y26800D03*
D17*
X328200Y27200D03*
D28*
X382000Y27200D03*
D17*
X435400Y27200D03*
X328600Y27600D03*
D25*
X382200Y27600D03*
D17*
X435800Y27600D03*
X328200Y28000D03*
D24*
X382000Y28000D03*
D17*
X435400Y28000D03*
X328600Y28400D03*
D22*
X382400Y28400D03*
D15*
X435600Y28400D03*
D17*
X328200Y28800D03*
D20*
X382000Y28800D03*
D17*
X435400Y28800D03*
X328600Y29200D03*
D19*
X382400Y29200D03*
D17*
X435800Y29200D03*
X328200Y29600D03*
D18*
X382400Y29600D03*
D17*
X435400Y29600D03*
X328600Y30000D03*
D15*
X354000Y30000D03*
D26*
X382200Y30000D03*
D17*
X410200Y30000D03*
D15*
X435600Y30000D03*
D17*
X328200Y30400D03*
D29*
X353800Y30400D03*
D18*
X382000Y30400D03*
D29*
X409800Y30400D03*
D17*
X435400Y30400D03*
X328600Y30800D03*
D20*
X354000Y30800D03*
D30*
X382200Y30800D03*
D21*
X410200Y30800D03*
D17*
X435800Y30800D03*
X328200Y31200D03*
D25*
X353800Y31200D03*
D20*
X382000Y31200D03*
D24*
X410000Y31200D03*
D17*
X435400Y31200D03*
X328600Y31600D03*
D31*
X353800Y31600D03*
D23*
X382200Y31600D03*
D31*
X410200Y31600D03*
D15*
X435600Y31600D03*
D17*
X328200Y32000D03*
D27*
X353800Y32000D03*
D24*
X382000Y32000D03*
D27*
X409800Y32000D03*
D17*
X435400Y32000D03*
X328600Y32400D03*
D32*
X354000Y32400D03*
D25*
X382200Y32400D03*
D33*
X410200Y32400D03*
D17*
X435800Y32400D03*
X328200Y32800D03*
D34*
X353800Y32800D03*
D31*
X382200Y32800D03*
D34*
X409800Y32800D03*
D17*
X435400Y32800D03*
X328600Y33200D03*
D35*
X354000Y33200D03*
D27*
X382200Y33200D03*
D36*
X410200Y33200D03*
D15*
X435600Y33200D03*
D17*
X328200Y33600D03*
D37*
X353800Y33600D03*
D38*
X382000Y33600D03*
D39*
X410000Y33600D03*
D17*
X435400Y33600D03*
X328600Y34000D03*
D40*
X354000Y34000D03*
D33*
X382200Y34000D03*
D40*
X410000Y34000D03*
D17*
X435800Y34000D03*
D41*
X327600Y34400D03*
D42*
X353800Y34400D03*
D34*
X382200Y34400D03*
D40*
X410000Y34400D03*
D26*
X436200Y34400D03*
D19*
X327200Y34800D03*
D43*
X354000Y34800D03*
D36*
X382200Y34800D03*
D43*
X410000Y34800D03*
D19*
X437200Y34800D03*
D20*
X326400Y35200D03*
D44*
X353800Y35200D03*
D39*
X382000Y35200D03*
D43*
X410000Y35200D03*
D21*
X437400Y35200D03*
D23*
X326200Y35600D03*
D44*
X353800Y35600D03*
D39*
X382000Y35600D03*
D44*
X410200Y35600D03*
D22*
X438000Y35600D03*
D23*
X325800Y36000D03*
D45*
X354000Y36000D03*
D40*
X382000Y36000D03*
D45*
X410000Y36000D03*
D24*
X438000Y36000D03*
X325600Y36400D03*
D45*
X354000Y36400D03*
D42*
X382200Y36400D03*
D45*
X410000Y36400D03*
D25*
X438600Y36400D03*
D46*
X325200Y36800D03*
D47*
X353800Y36800D03*
D43*
X382000Y36800D03*
D47*
X409800Y36800D03*
D25*
X438600Y36800D03*
D46*
X325200Y37200D03*
D48*
X354000Y37200D03*
D43*
X382000Y37200D03*
D47*
X410200Y37200D03*
D46*
X439200Y37200D03*
X324400Y37600D03*
D47*
X353800Y37600D03*
D44*
X382200Y37600D03*
D48*
X410000Y37600D03*
D25*
X439400Y37600D03*
D19*
X322800Y38000D03*
D48*
X354000Y38000D03*
D44*
X382200Y38000D03*
D48*
X410000Y38000D03*
D19*
X441200Y38000D03*
D18*
X322000Y38400D03*
D47*
X353800Y38400D03*
D45*
X382000Y38400D03*
D48*
X410000Y38400D03*
D26*
X441800Y38400D03*
D41*
X321600Y38800D03*
D48*
X354000Y38800D03*
D47*
X382200Y38800D03*
D48*
X410000Y38800D03*
D26*
X442600Y38800D03*
D41*
X321200Y39200D03*
D47*
X353800Y39200D03*
D45*
X382000Y39200D03*
D48*
X410000Y39200D03*
D41*
X442800Y39200D03*
X320800Y39600D03*
D48*
X354000Y39600D03*
D47*
X382200Y39600D03*
X410200Y39600D03*
D41*
X443200Y39600D03*
D16*
X320600Y40000D03*
D47*
X353800Y40000D03*
D48*
X382000Y40000D03*
X410000Y40000D03*
D16*
X443400Y40000D03*
D49*
X320400Y40400D03*
D47*
X353800Y40400D03*
X382200Y40400D03*
X410200Y40400D03*
D16*
X443800Y40400D03*
D49*
X320000Y40800D03*
D47*
X353800Y40800D03*
D48*
X382000Y40800D03*
D45*
X410000Y40800D03*
D16*
X443800Y40800D03*
D49*
X320000Y41200D03*
D45*
X354000Y41200D03*
D47*
X382200Y41200D03*
D45*
X410000Y41200D03*
D49*
X444000Y41200D03*
X319600Y41600D03*
D44*
X353800Y41600D03*
D47*
X381800Y41600D03*
D45*
X410000Y41600D03*
D49*
X444000Y41600D03*
X319600Y42000D03*
D44*
X353800Y42000D03*
D47*
X382200Y42000D03*
D44*
X410200Y42000D03*
D49*
X444400Y42000D03*
D17*
X319400Y42400D03*
D43*
X354000Y42400D03*
D45*
X382000Y42400D03*
D43*
X410000Y42400D03*
D49*
X444400Y42400D03*
D17*
X319400Y42800D03*
D40*
X354000Y42800D03*
D45*
X382000Y42800D03*
D42*
X410200Y42800D03*
D17*
X444600Y42800D03*
D49*
X319200Y43200D03*
D37*
X353800Y43200D03*
D45*
X382000Y43200D03*
D40*
X410000Y43200D03*
D17*
X444600Y43200D03*
D49*
X319200Y43600D03*
D39*
X354000Y43600D03*
D44*
X382200Y43600D03*
D37*
X410200Y43600D03*
D49*
X444800Y43600D03*
D17*
X319000Y44000D03*
D36*
X353800Y44000D03*
D43*
X382000Y44000D03*
D36*
X409800Y44000D03*
D49*
X444800Y44000D03*
X319200Y44400D03*
D35*
X354000Y44400D03*
D40*
X382000Y44400D03*
D34*
X410200Y44400D03*
D17*
X445000Y44400D03*
X319000Y44800D03*
D32*
X354000Y44800D03*
D40*
X382000Y44800D03*
D32*
X410000Y44800D03*
D49*
X444800Y44800D03*
D17*
X319000Y45200D03*
D38*
X354000Y45200D03*
D39*
X382000Y45200D03*
D38*
X410000Y45200D03*
D17*
X445000Y45200D03*
X319000Y45600D03*
D31*
X353800Y45600D03*
D35*
X382000Y45600D03*
D28*
X410000Y45600D03*
D17*
X445000Y45600D03*
X319000Y46000D03*
D25*
X353800Y46000D03*
D32*
X382000Y46000D03*
D25*
X410200Y46000D03*
D17*
X445000Y46000D03*
D49*
X318800Y46400D03*
D21*
X353800Y46400D03*
D38*
X382000Y46400D03*
D22*
X410000Y46400D03*
D17*
X445000Y46400D03*
X319000Y46800D03*
D19*
X354000Y46800D03*
D46*
X382000Y46800D03*
D19*
X410000Y46800D03*
D49*
X445200Y46800D03*
X318800Y47200D03*
X354000Y47200D03*
D22*
X382000Y47200D03*
D49*
X410000Y47200D03*
D17*
X445000Y47200D03*
X319000Y47600D03*
D13*
X354000Y47600D03*
D18*
X382000Y47600D03*
D13*
X410000Y47600D03*
D49*
X445200Y47600D03*
X318800Y48000D03*
D13*
X381600Y48000D03*
X382400Y48000D03*
D17*
X445000Y48000D03*
X319000Y48400D03*
X445000Y48400D03*
X319000Y48800D03*
D49*
X444800Y48800D03*
X319200Y49200D03*
D17*
X445000Y49200D03*
D49*
X319200Y49600D03*
X444800Y49600D03*
X319200Y50000D03*
X444800Y50000D03*
X319200Y50400D03*
D17*
X444600Y50400D03*
X319400Y50800D03*
D49*
X444800Y50800D03*
X319600Y51200D03*
X444400Y51200D03*
X319600Y51600D03*
X444400Y51600D03*
X319600Y52000D03*
D16*
X444200Y52000D03*
D49*
X320000Y52400D03*
X444000Y52400D03*
X320000Y52800D03*
D16*
X443800Y52800D03*
X320200Y53200D03*
X443800Y53200D03*
X320600Y53600D03*
X443400Y53600D03*
D41*
X320800Y54000D03*
D50*
X336000Y54000D03*
D14*
X428200Y54000D03*
D41*
X443200Y54000D03*
D26*
X321000Y54400D03*
D51*
X335600Y54400D03*
X428400Y54400D03*
D41*
X442800Y54400D03*
D26*
X321400Y54800D03*
D52*
X335400Y54800D03*
D53*
X428800Y54800D03*
D26*
X442600Y54800D03*
X321800Y55200D03*
D54*
X334600Y55200D03*
X429000Y55200D03*
D18*
X442000Y55200D03*
D29*
X322600Y55600D03*
D16*
X334200Y55600D03*
D49*
X430000Y55600D03*
D29*
X441400Y55600D03*
D22*
X323600Y56000D03*
D13*
X328800Y56000D03*
D29*
X333000Y56000D03*
D19*
X430800Y56000D03*
D13*
X435200Y56000D03*
D22*
X440400Y56000D03*
D47*
X328200Y56400D03*
D45*
X436000Y56400D03*
D44*
X328200Y56800D03*
D45*
X435600Y56800D03*
D43*
X328400Y57200D03*
X435600Y57200D03*
D40*
X328400Y57600D03*
D42*
X435400Y57600D03*
D36*
X328600Y58000D03*
X435400Y58000D03*
D32*
X328400Y58400D03*
X435600Y58400D03*
D28*
X328400Y58800D03*
X435600Y58800D03*
D23*
X328200Y59200D03*
X435800Y59200D03*
D18*
X328000Y59600D03*
X436000Y59600D03*
D13*
X328000Y60000D03*
X436000Y60000D03*
D55*
X369600Y224400D02*
X369600Y230800D01*
X369600Y224000D02*
X369600Y208800D01*
X363200Y214000D02*
X376000Y214000D01*
X369600Y224400D01*
X369600Y224000D02*
X363200Y224000D01*
X369600Y224000D02*
X376000Y224000D01*
X369600Y224000D02*
X369600Y224400D01*
X342400Y217600D02*
X342400Y211200D01*
X342400Y218000D02*
X342400Y233200D01*
X348800Y228000D02*
X336000Y228000D01*
X342400Y217600D01*
X342400Y218000D02*
X348800Y218000D01*
X342400Y218000D02*
X336000Y218000D01*
X342400Y218000D02*
X342400Y217600D01*
X348800Y228000D01*
X363200Y214000D02*
X369600Y224400D01*
X142800Y136400D02*
X142800Y88400D01*
X148000Y88400D01*
X181200Y88400D01*
X181200Y136400D01*
X148000Y136400D01*
X142800Y136400D01*
X148000Y136400D02*
X148000Y88400D01*
D56*
X321435Y427060D02*
X331764Y427060D01*
X326600Y421896D02*
X326600Y432225D01*
X421435Y427060D02*
X431764Y427060D01*
D55*
X179800Y334820D02*
X179800Y294180D01*
X205200Y294180D01*
X205200Y334820D01*
X179800Y334820D01*
X192500Y320850D02*
X192500Y314500D01*
X198850Y304340D02*
X186150Y304340D01*
X192500Y314500D01*
X192500Y299260D01*
X198850Y304340D02*
X192500Y314500D01*
X198850Y314500D01*
X192500Y314500D02*
X186150Y314500D01*
D57*
X192500Y328470D03*
D58*
X192500Y284655D03*
X192500Y344345D03*
D55*
X377320Y197940D02*
X377420Y197942D01*
X377519Y197948D01*
X377619Y197958D01*
X377717Y197971D01*
X377816Y197989D01*
X377913Y198010D01*
X378009Y198035D01*
X378105Y198064D01*
X378199Y198097D01*
X378292Y198133D01*
X378383Y198173D01*
X378473Y198217D01*
X378561Y198264D01*
X378647Y198314D01*
X378731Y198368D01*
X378813Y198425D01*
X378892Y198485D01*
X378970Y198549D01*
X379044Y198615D01*
X379116Y198684D01*
X379185Y198756D01*
X379251Y198830D01*
X379315Y198908D01*
X379375Y198987D01*
X379432Y199069D01*
X379486Y199153D01*
X379536Y199239D01*
X379583Y199327D01*
X379627Y199417D01*
X379667Y199508D01*
X379703Y199601D01*
X379736Y199695D01*
X379765Y199791D01*
X379790Y199887D01*
X379811Y199984D01*
X379829Y200083D01*
X379842Y200181D01*
X379852Y200281D01*
X379858Y200380D01*
X379860Y200480D01*
X377320Y197940D02*
X362080Y197940D01*
X361980Y197942D01*
X361881Y197948D01*
X361781Y197958D01*
X361683Y197971D01*
X361584Y197989D01*
X361487Y198010D01*
X361391Y198035D01*
X361295Y198064D01*
X361201Y198097D01*
X361108Y198133D01*
X361017Y198173D01*
X360927Y198217D01*
X360839Y198264D01*
X360753Y198314D01*
X360669Y198368D01*
X360587Y198425D01*
X360508Y198485D01*
X360430Y198549D01*
X360356Y198615D01*
X360284Y198684D01*
X360215Y198756D01*
X360149Y198830D01*
X360085Y198908D01*
X360025Y198987D01*
X359968Y199069D01*
X359914Y199153D01*
X359864Y199239D01*
X359817Y199327D01*
X359773Y199417D01*
X359733Y199508D01*
X359697Y199601D01*
X359664Y199695D01*
X359635Y199791D01*
X359610Y199887D01*
X359589Y199984D01*
X359571Y200083D01*
X359558Y200181D01*
X359548Y200281D01*
X359542Y200380D01*
X359540Y200480D01*
X379860Y241120D02*
X379858Y241220D01*
X379852Y241319D01*
X379842Y241419D01*
X379829Y241517D01*
X379811Y241616D01*
X379790Y241713D01*
X379765Y241809D01*
X379736Y241905D01*
X379703Y241999D01*
X379667Y242092D01*
X379627Y242183D01*
X379583Y242273D01*
X379536Y242361D01*
X379486Y242447D01*
X379432Y242531D01*
X379375Y242613D01*
X379315Y242692D01*
X379251Y242770D01*
X379185Y242844D01*
X379116Y242916D01*
X379044Y242985D01*
X378970Y243051D01*
X378892Y243115D01*
X378813Y243175D01*
X378731Y243232D01*
X378647Y243286D01*
X378561Y243336D01*
X378473Y243383D01*
X378383Y243427D01*
X378292Y243467D01*
X378199Y243503D01*
X378105Y243536D01*
X378009Y243565D01*
X377913Y243590D01*
X377816Y243611D01*
X377717Y243629D01*
X377619Y243642D01*
X377519Y243652D01*
X377420Y243658D01*
X377320Y243660D01*
X362080Y243660D02*
X361980Y243658D01*
X361881Y243652D01*
X361781Y243642D01*
X361683Y243629D01*
X361584Y243611D01*
X361487Y243590D01*
X361391Y243565D01*
X361295Y243536D01*
X361201Y243503D01*
X361108Y243467D01*
X361017Y243427D01*
X360927Y243383D01*
X360839Y243336D01*
X360753Y243286D01*
X360669Y243232D01*
X360587Y243175D01*
X360508Y243115D01*
X360430Y243051D01*
X360356Y242985D01*
X360284Y242916D01*
X360215Y242844D01*
X360149Y242770D01*
X360085Y242692D01*
X360025Y242613D01*
X359968Y242531D01*
X359914Y242447D01*
X359864Y242361D01*
X359817Y242273D01*
X359773Y242183D01*
X359733Y242092D01*
X359697Y241999D01*
X359664Y241905D01*
X359635Y241809D01*
X359610Y241713D01*
X359589Y241616D01*
X359571Y241517D01*
X359558Y241419D01*
X359548Y241319D01*
X359542Y241220D01*
X359540Y241120D01*
X359540Y200480D01*
X362080Y243660D02*
X377320Y243660D01*
X379860Y241120D02*
X379860Y200480D01*
D59*
X369700Y245438D02*
X369700Y246200D01*
X369700Y196162D02*
X369700Y195400D01*
D60*
X369700Y237310D03*
D55*
X334680Y244160D02*
X334580Y244158D01*
X334481Y244152D01*
X334381Y244142D01*
X334283Y244129D01*
X334184Y244111D01*
X334087Y244090D01*
X333991Y244065D01*
X333895Y244036D01*
X333801Y244003D01*
X333708Y243967D01*
X333617Y243927D01*
X333527Y243883D01*
X333439Y243836D01*
X333353Y243786D01*
X333269Y243732D01*
X333187Y243675D01*
X333108Y243615D01*
X333030Y243551D01*
X332956Y243485D01*
X332884Y243416D01*
X332815Y243344D01*
X332749Y243270D01*
X332685Y243192D01*
X332625Y243113D01*
X332568Y243031D01*
X332514Y242947D01*
X332464Y242861D01*
X332417Y242773D01*
X332373Y242683D01*
X332333Y242592D01*
X332297Y242499D01*
X332264Y242405D01*
X332235Y242309D01*
X332210Y242213D01*
X332189Y242116D01*
X332171Y242017D01*
X332158Y241919D01*
X332148Y241819D01*
X332142Y241720D01*
X332140Y241620D01*
X334680Y244160D02*
X349920Y244160D01*
X350020Y244158D01*
X350119Y244152D01*
X350219Y244142D01*
X350317Y244129D01*
X350416Y244111D01*
X350513Y244090D01*
X350609Y244065D01*
X350705Y244036D01*
X350799Y244003D01*
X350892Y243967D01*
X350983Y243927D01*
X351073Y243883D01*
X351161Y243836D01*
X351247Y243786D01*
X351331Y243732D01*
X351413Y243675D01*
X351492Y243615D01*
X351570Y243551D01*
X351644Y243485D01*
X351716Y243416D01*
X351785Y243344D01*
X351851Y243270D01*
X351915Y243192D01*
X351975Y243113D01*
X352032Y243031D01*
X352086Y242947D01*
X352136Y242861D01*
X352183Y242773D01*
X352227Y242683D01*
X352267Y242592D01*
X352303Y242499D01*
X352336Y242405D01*
X352365Y242309D01*
X352390Y242213D01*
X352411Y242116D01*
X352429Y242017D01*
X352442Y241919D01*
X352452Y241819D01*
X352458Y241720D01*
X352460Y241620D01*
X332140Y200980D02*
X332142Y200880D01*
X332148Y200781D01*
X332158Y200681D01*
X332171Y200583D01*
X332189Y200484D01*
X332210Y200387D01*
X332235Y200291D01*
X332264Y200195D01*
X332297Y200101D01*
X332333Y200008D01*
X332373Y199917D01*
X332417Y199827D01*
X332464Y199739D01*
X332514Y199653D01*
X332568Y199569D01*
X332625Y199487D01*
X332685Y199408D01*
X332749Y199330D01*
X332815Y199256D01*
X332884Y199184D01*
X332956Y199115D01*
X333030Y199049D01*
X333108Y198985D01*
X333187Y198925D01*
X333269Y198868D01*
X333353Y198814D01*
X333439Y198764D01*
X333527Y198717D01*
X333617Y198673D01*
X333708Y198633D01*
X333801Y198597D01*
X333895Y198564D01*
X333991Y198535D01*
X334087Y198510D01*
X334184Y198489D01*
X334283Y198471D01*
X334381Y198458D01*
X334481Y198448D01*
X334580Y198442D01*
X334680Y198440D01*
X349920Y198440D02*
X350020Y198442D01*
X350119Y198448D01*
X350219Y198458D01*
X350317Y198471D01*
X350416Y198489D01*
X350513Y198510D01*
X350609Y198535D01*
X350705Y198564D01*
X350799Y198597D01*
X350892Y198633D01*
X350983Y198673D01*
X351073Y198717D01*
X351161Y198764D01*
X351247Y198814D01*
X351331Y198868D01*
X351413Y198925D01*
X351492Y198985D01*
X351570Y199049D01*
X351644Y199115D01*
X351716Y199184D01*
X351785Y199256D01*
X351851Y199330D01*
X351915Y199408D01*
X351975Y199487D01*
X352032Y199569D01*
X352086Y199653D01*
X352136Y199739D01*
X352183Y199827D01*
X352227Y199917D01*
X352267Y200008D01*
X352303Y200101D01*
X352336Y200195D01*
X352365Y200291D01*
X352390Y200387D01*
X352411Y200484D01*
X352429Y200583D01*
X352442Y200681D01*
X352452Y200781D01*
X352458Y200880D01*
X352460Y200980D01*
X352460Y241620D01*
X349920Y198440D02*
X334680Y198440D01*
X332140Y200980D02*
X332140Y241620D01*
D59*
X342300Y196662D02*
X342300Y195900D01*
X342300Y245938D02*
X342300Y246700D01*
D60*
X342300Y204790D03*
D61*
X262085Y40682D02*
X263202Y41479D01*
X263201Y41479D02*
X263410Y41197D01*
X263626Y40920D01*
X263848Y40649D01*
X264076Y40383D01*
X264311Y40122D01*
X264552Y39867D01*
X264800Y39619D01*
X265053Y39376D01*
X265312Y39139D01*
X265576Y38909D01*
X265847Y38685D01*
X266122Y38468D01*
X266402Y38257D01*
X266688Y38053D01*
X266978Y37856D01*
X267273Y37666D01*
X267573Y37484D01*
X267877Y37308D01*
X268185Y37140D01*
X268497Y36980D01*
X268812Y36827D01*
X269132Y36682D01*
X269454Y36544D01*
X269780Y36414D01*
X270109Y36292D01*
X270441Y36178D01*
X270776Y36073D01*
X271112Y35975D01*
X271452Y35885D01*
X271793Y35804D01*
X272136Y35731D01*
X272481Y35666D01*
X272827Y35609D01*
X273174Y35561D01*
X273523Y35521D01*
X273872Y35490D01*
X274222Y35467D01*
X274573Y35452D01*
X274924Y35446D01*
X274924Y34075D01*
X274924Y34074D01*
X274539Y34081D01*
X274156Y34096D01*
X273772Y34121D01*
X273389Y34156D01*
X273008Y34199D01*
X272627Y34252D01*
X272248Y34314D01*
X271870Y34385D01*
X271494Y34465D01*
X271120Y34554D01*
X270749Y34652D01*
X270380Y34759D01*
X270014Y34875D01*
X269650Y34999D01*
X269290Y35133D01*
X268933Y35275D01*
X268579Y35426D01*
X268230Y35585D01*
X267884Y35752D01*
X267542Y35928D01*
X267205Y36112D01*
X266872Y36304D01*
X266544Y36504D01*
X266221Y36712D01*
X265903Y36928D01*
X265590Y37151D01*
X265283Y37382D01*
X264981Y37620D01*
X264685Y37865D01*
X264396Y38118D01*
X264112Y38377D01*
X263835Y38643D01*
X263564Y38916D01*
X263300Y39195D01*
X263043Y39480D01*
X262792Y39772D01*
X262549Y40069D01*
X262313Y40373D01*
X262085Y40682D01*
X262201Y40765D01*
X262428Y40459D01*
X262661Y40158D01*
X262902Y39863D01*
X263151Y39574D01*
X263405Y39292D01*
X263667Y39015D01*
X263935Y38745D01*
X264210Y38481D01*
X264491Y38224D01*
X264778Y37974D01*
X265071Y37731D01*
X265370Y37495D01*
X265675Y37266D01*
X265985Y37045D01*
X266300Y36832D01*
X266620Y36625D01*
X266945Y36427D01*
X267275Y36237D01*
X267609Y36055D01*
X267948Y35880D01*
X268290Y35714D01*
X268637Y35557D01*
X268987Y35407D01*
X269341Y35266D01*
X269698Y35134D01*
X270058Y35011D01*
X270421Y34896D01*
X270787Y34790D01*
X271155Y34693D01*
X271525Y34604D01*
X271898Y34525D01*
X272272Y34455D01*
X272648Y34393D01*
X273025Y34341D01*
X273403Y34298D01*
X273783Y34264D01*
X274162Y34239D01*
X274543Y34224D01*
X274924Y34217D01*
X274924Y34360D01*
X274546Y34367D01*
X274169Y34382D01*
X273793Y34407D01*
X273417Y34440D01*
X273042Y34483D01*
X272669Y34535D01*
X272296Y34595D01*
X271925Y34665D01*
X271556Y34744D01*
X271189Y34831D01*
X270825Y34928D01*
X270462Y35033D01*
X270103Y35147D01*
X269746Y35269D01*
X269392Y35400D01*
X269041Y35540D01*
X268694Y35687D01*
X268351Y35844D01*
X268011Y36008D01*
X267676Y36181D01*
X267345Y36362D01*
X267018Y36550D01*
X266696Y36747D01*
X266379Y36951D01*
X266066Y37163D01*
X265759Y37382D01*
X265458Y37608D01*
X265162Y37842D01*
X264871Y38083D01*
X264587Y38331D01*
X264308Y38585D01*
X264036Y38846D01*
X263770Y39114D01*
X263511Y39388D01*
X263258Y39668D01*
X263012Y39955D01*
X262774Y40247D01*
X262542Y40545D01*
X262317Y40848D01*
X262434Y40931D01*
X262656Y40630D01*
X262886Y40335D01*
X263122Y40046D01*
X263366Y39763D01*
X263616Y39485D01*
X263873Y39213D01*
X264137Y38948D01*
X264406Y38689D01*
X264682Y38437D01*
X264964Y38192D01*
X265252Y37953D01*
X265545Y37721D01*
X265844Y37497D01*
X266148Y37280D01*
X266458Y37070D01*
X266772Y36868D01*
X267091Y36673D01*
X267415Y36486D01*
X267743Y36307D01*
X268075Y36136D01*
X268412Y35973D01*
X268752Y35818D01*
X269096Y35672D01*
X269443Y35534D01*
X269794Y35404D01*
X270147Y35282D01*
X270504Y35170D01*
X270863Y35066D01*
X271224Y34970D01*
X271588Y34883D01*
X271953Y34805D01*
X272321Y34736D01*
X272689Y34676D01*
X273060Y34625D01*
X273431Y34583D01*
X273803Y34549D01*
X274176Y34525D01*
X274550Y34510D01*
X274924Y34503D01*
X274924Y34646D01*
X274553Y34652D01*
X274183Y34668D01*
X273814Y34692D01*
X273445Y34725D01*
X273077Y34767D01*
X272710Y34818D01*
X272345Y34877D01*
X271981Y34946D01*
X271619Y35023D01*
X271259Y35109D01*
X270900Y35203D01*
X270545Y35307D01*
X270192Y35418D01*
X269842Y35538D01*
X269494Y35667D01*
X269150Y35804D01*
X268810Y35949D01*
X268472Y36103D01*
X268139Y36264D01*
X267810Y36434D01*
X267485Y36611D01*
X267164Y36796D01*
X266848Y36989D01*
X266537Y37189D01*
X266230Y37397D01*
X265929Y37612D01*
X265633Y37835D01*
X265342Y38064D01*
X265057Y38300D01*
X264778Y38544D01*
X264504Y38793D01*
X264237Y39050D01*
X263976Y39313D01*
X263722Y39582D01*
X263474Y39857D01*
X263232Y40137D01*
X262998Y40424D01*
X262771Y40716D01*
X262550Y41014D01*
X262667Y41097D01*
X262885Y40802D01*
X263110Y40513D01*
X263342Y40229D01*
X263581Y39951D01*
X263827Y39678D01*
X264079Y39412D01*
X264338Y39151D01*
X264602Y38898D01*
X264873Y38650D01*
X265150Y38409D01*
X265432Y38175D01*
X265720Y37948D01*
X266013Y37727D01*
X266312Y37514D01*
X266616Y37308D01*
X266924Y37110D01*
X267237Y36919D01*
X267555Y36736D01*
X267877Y36560D01*
X268203Y36392D01*
X268533Y36232D01*
X268867Y36080D01*
X269205Y35936D01*
X269545Y35801D01*
X269889Y35673D01*
X270236Y35554D01*
X270586Y35443D01*
X270938Y35341D01*
X271293Y35248D01*
X271650Y35163D01*
X272009Y35086D01*
X272369Y35018D01*
X272731Y34959D01*
X273095Y34909D01*
X273459Y34867D01*
X273824Y34835D01*
X274190Y34811D01*
X274557Y34795D01*
X274924Y34789D01*
X274924Y34932D01*
X274560Y34938D01*
X274197Y34953D01*
X273835Y34977D01*
X273473Y35010D01*
X273112Y35051D01*
X272752Y35101D01*
X272393Y35159D01*
X272036Y35226D01*
X271681Y35302D01*
X271328Y35386D01*
X270976Y35479D01*
X270627Y35580D01*
X270281Y35690D01*
X269937Y35808D01*
X269597Y35934D01*
X269259Y36069D01*
X268925Y36211D01*
X268594Y36362D01*
X268267Y36520D01*
X267944Y36686D01*
X267625Y36860D01*
X267310Y37042D01*
X267000Y37231D01*
X266695Y37428D01*
X266394Y37632D01*
X266098Y37843D01*
X265808Y38061D01*
X265522Y38286D01*
X265243Y38518D01*
X264969Y38756D01*
X264700Y39002D01*
X264438Y39253D01*
X264182Y39511D01*
X263932Y39775D01*
X263689Y40045D01*
X263452Y40320D01*
X263222Y40602D01*
X262999Y40888D01*
X262783Y41180D01*
X262899Y41263D01*
X263113Y40974D01*
X263335Y40690D01*
X263562Y40412D01*
X263797Y40139D01*
X264038Y39871D01*
X264285Y39610D01*
X264539Y39355D01*
X264799Y39106D01*
X265064Y38863D01*
X265336Y38627D01*
X265613Y38397D01*
X265895Y38174D01*
X266183Y37958D01*
X266476Y37749D01*
X266773Y37547D01*
X267076Y37352D01*
X267383Y37165D01*
X267695Y36985D01*
X268011Y36813D01*
X268331Y36648D01*
X268655Y36491D01*
X268982Y36342D01*
X269313Y36201D01*
X269648Y36068D01*
X269985Y35943D01*
X270325Y35826D01*
X270669Y35717D01*
X271014Y35617D01*
X271362Y35525D01*
X271712Y35442D01*
X272064Y35367D01*
X272418Y35300D01*
X272773Y35242D01*
X273129Y35193D01*
X273487Y35152D01*
X273845Y35120D01*
X274204Y35096D01*
X274564Y35081D01*
X274924Y35075D01*
X274924Y35218D01*
X274567Y35224D01*
X274211Y35239D01*
X273856Y35262D01*
X273501Y35294D01*
X273147Y35335D01*
X272794Y35384D01*
X272442Y35441D01*
X272092Y35507D01*
X271743Y35581D01*
X271397Y35664D01*
X271052Y35755D01*
X270710Y35854D01*
X270370Y35962D01*
X270033Y36078D01*
X269699Y36201D01*
X269368Y36333D01*
X269040Y36473D01*
X268715Y36620D01*
X268395Y36776D01*
X268078Y36939D01*
X267765Y37110D01*
X267456Y37288D01*
X267152Y37473D01*
X266852Y37666D01*
X266557Y37866D01*
X266267Y38073D01*
X265982Y38287D01*
X265703Y38508D01*
X265428Y38735D01*
X265160Y38969D01*
X264897Y39210D01*
X264639Y39456D01*
X264388Y39709D01*
X264143Y39968D01*
X263905Y40233D01*
X263672Y40503D01*
X263447Y40779D01*
X263228Y41060D01*
X263016Y41346D01*
X263132Y41430D01*
X263342Y41146D01*
X263559Y40868D01*
X263782Y40594D01*
X264012Y40327D01*
X264249Y40065D01*
X264491Y39809D01*
X264740Y39558D01*
X264995Y39314D01*
X265255Y39076D01*
X265521Y38844D01*
X265793Y38619D01*
X266070Y38400D01*
X266352Y38188D01*
X266639Y37983D01*
X266931Y37785D01*
X267228Y37594D01*
X267529Y37411D01*
X267835Y37234D01*
X268145Y37065D01*
X268459Y36904D01*
X268776Y36750D01*
X269097Y36604D01*
X269422Y36465D01*
X269750Y36335D01*
X270081Y36212D01*
X270415Y36098D01*
X270751Y35991D01*
X271090Y35893D01*
X271431Y35803D01*
X271774Y35721D01*
X272119Y35647D01*
X272466Y35582D01*
X272815Y35525D01*
X273164Y35477D01*
X273515Y35437D01*
X273866Y35405D01*
X274218Y35382D01*
X274571Y35367D01*
X274924Y35361D01*
X275075Y34075D02*
X275075Y35447D01*
X275076Y35446D02*
X275427Y35452D01*
X275778Y35467D01*
X276128Y35490D01*
X276478Y35521D01*
X276827Y35561D01*
X277175Y35609D01*
X277521Y35666D01*
X277866Y35731D01*
X278210Y35804D01*
X278551Y35886D01*
X278891Y35976D01*
X279228Y36074D01*
X279563Y36180D01*
X279895Y36294D01*
X280224Y36416D01*
X280550Y36546D01*
X280873Y36684D01*
X281193Y36829D01*
X281509Y36983D01*
X281821Y37143D01*
X282129Y37312D01*
X282433Y37487D01*
X282733Y37670D01*
X283028Y37860D01*
X283319Y38058D01*
X283604Y38262D01*
X283885Y38473D01*
X284160Y38691D01*
X284431Y38915D01*
X284695Y39146D01*
X284954Y39383D01*
X285208Y39626D01*
X285455Y39875D01*
X285696Y40130D01*
X285931Y40391D01*
X286160Y40658D01*
X286382Y40930D01*
X286597Y41207D01*
X287695Y40384D01*
X287459Y40080D01*
X287216Y39782D01*
X286966Y39490D01*
X286708Y39204D01*
X286444Y38924D01*
X286173Y38651D01*
X285896Y38385D01*
X285612Y38125D01*
X285323Y37872D01*
X285027Y37626D01*
X284725Y37388D01*
X284418Y37157D01*
X284105Y36933D01*
X283786Y36717D01*
X283463Y36509D01*
X283135Y36308D01*
X282802Y36116D01*
X282464Y35932D01*
X282122Y35755D01*
X281776Y35588D01*
X281426Y35428D01*
X281072Y35277D01*
X280715Y35135D01*
X280354Y35001D01*
X279991Y34876D01*
X279624Y34760D01*
X279255Y34653D01*
X278883Y34555D01*
X278509Y34465D01*
X278133Y34385D01*
X277755Y34314D01*
X277375Y34252D01*
X276994Y34199D01*
X276612Y34156D01*
X276229Y34121D01*
X275845Y34096D01*
X275461Y34081D01*
X275076Y34074D01*
X275076Y34217D01*
X275457Y34224D01*
X275838Y34239D01*
X276218Y34264D01*
X276598Y34298D01*
X276977Y34341D01*
X277354Y34394D01*
X277730Y34455D01*
X278105Y34525D01*
X278478Y34605D01*
X278848Y34693D01*
X279217Y34791D01*
X279583Y34897D01*
X279946Y35012D01*
X280307Y35136D01*
X280664Y35268D01*
X281018Y35409D01*
X281369Y35559D01*
X281715Y35717D01*
X282058Y35883D01*
X282397Y36058D01*
X282732Y36240D01*
X283062Y36431D01*
X283387Y36630D01*
X283707Y36836D01*
X284023Y37050D01*
X284333Y37272D01*
X284637Y37501D01*
X284936Y37737D01*
X285230Y37981D01*
X285517Y38231D01*
X285798Y38489D01*
X286073Y38753D01*
X286341Y39024D01*
X286603Y39301D01*
X286858Y39584D01*
X287106Y39873D01*
X287347Y40169D01*
X287581Y40470D01*
X287466Y40555D01*
X287235Y40257D01*
X286996Y39965D01*
X286750Y39678D01*
X286497Y39397D01*
X286238Y39123D01*
X285972Y38854D01*
X285700Y38593D01*
X285421Y38338D01*
X285137Y38090D01*
X284846Y37848D01*
X284550Y37614D01*
X284248Y37387D01*
X283941Y37168D01*
X283628Y36955D01*
X283311Y36751D01*
X282989Y36554D01*
X282662Y36365D01*
X282330Y36184D01*
X281994Y36011D01*
X281655Y35846D01*
X281311Y35690D01*
X280964Y35542D01*
X280613Y35402D01*
X280259Y35271D01*
X279902Y35148D01*
X279541Y35034D01*
X279179Y34929D01*
X278814Y34832D01*
X278446Y34744D01*
X278077Y34666D01*
X277706Y34596D01*
X277333Y34535D01*
X276959Y34483D01*
X276584Y34440D01*
X276208Y34407D01*
X275831Y34382D01*
X275454Y34367D01*
X275076Y34360D01*
X275076Y34503D01*
X275450Y34510D01*
X275824Y34525D01*
X276197Y34549D01*
X276570Y34583D01*
X276942Y34625D01*
X277312Y34676D01*
X277682Y34737D01*
X278049Y34806D01*
X278415Y34884D01*
X278779Y34971D01*
X279141Y35066D01*
X279500Y35171D01*
X279857Y35284D01*
X280211Y35405D01*
X280562Y35535D01*
X280909Y35674D01*
X281253Y35821D01*
X281594Y35976D01*
X281930Y36139D01*
X282263Y36310D01*
X282591Y36490D01*
X282915Y36677D01*
X283235Y36872D01*
X283549Y37075D01*
X283859Y37285D01*
X284163Y37502D01*
X284462Y37727D01*
X284756Y37959D01*
X285044Y38198D01*
X285326Y38444D01*
X285602Y38697D01*
X285871Y38956D01*
X286135Y39222D01*
X286392Y39494D01*
X286642Y39772D01*
X286886Y40056D01*
X287122Y40346D01*
X287352Y40641D01*
X287237Y40727D01*
X287010Y40434D01*
X286776Y40147D01*
X286534Y39866D01*
X286286Y39590D01*
X286032Y39321D01*
X285771Y39058D01*
X285503Y38801D01*
X285230Y38551D01*
X284951Y38307D01*
X284666Y38070D01*
X284375Y37840D01*
X284078Y37617D01*
X283777Y37402D01*
X283470Y37194D01*
X283159Y36993D01*
X282842Y36800D01*
X282521Y36614D01*
X282196Y36437D01*
X281867Y36267D01*
X281533Y36105D01*
X281196Y35952D01*
X280855Y35806D01*
X280510Y35669D01*
X280163Y35540D01*
X279812Y35420D01*
X279459Y35308D01*
X279103Y35204D01*
X278745Y35110D01*
X278384Y35024D01*
X278022Y34946D01*
X277657Y34878D01*
X277291Y34818D01*
X276924Y34767D01*
X276556Y34725D01*
X276187Y34692D01*
X275817Y34668D01*
X275447Y34652D01*
X275076Y34646D01*
X275076Y34789D01*
X275443Y34795D01*
X275810Y34811D01*
X276176Y34835D01*
X276542Y34867D01*
X276907Y34909D01*
X277271Y34959D01*
X277633Y35019D01*
X277994Y35087D01*
X278353Y35163D01*
X278710Y35248D01*
X279065Y35342D01*
X279418Y35445D01*
X279768Y35555D01*
X280115Y35675D01*
X280459Y35802D01*
X280800Y35938D01*
X281138Y36082D01*
X281472Y36235D01*
X281803Y36395D01*
X282129Y36563D01*
X282451Y36739D01*
X282769Y36923D01*
X283083Y37114D01*
X283391Y37313D01*
X283695Y37519D01*
X283994Y37733D01*
X284287Y37953D01*
X284575Y38181D01*
X284858Y38416D01*
X285134Y38657D01*
X285405Y38905D01*
X285670Y39159D01*
X285929Y39420D01*
X286181Y39687D01*
X286427Y39960D01*
X286666Y40238D01*
X286898Y40523D01*
X287123Y40813D01*
X287009Y40899D01*
X286785Y40611D01*
X286555Y40330D01*
X286319Y40054D01*
X286075Y39783D01*
X285826Y39519D01*
X285569Y39261D01*
X285307Y39009D01*
X285039Y38763D01*
X284765Y38524D01*
X284485Y38292D01*
X284200Y38066D01*
X283909Y37848D01*
X283613Y37636D01*
X283312Y37432D01*
X283006Y37235D01*
X282696Y37046D01*
X282381Y36864D01*
X282062Y36689D01*
X281739Y36523D01*
X281411Y36364D01*
X281080Y36213D01*
X280746Y36071D01*
X280408Y35936D01*
X280067Y35810D01*
X279723Y35691D01*
X279376Y35582D01*
X279027Y35480D01*
X278676Y35387D01*
X278322Y35303D01*
X277966Y35227D01*
X277609Y35160D01*
X277250Y35101D01*
X276889Y35051D01*
X276528Y35010D01*
X276166Y34977D01*
X275803Y34953D01*
X275440Y34938D01*
X275076Y34932D01*
X275076Y35075D01*
X275436Y35081D01*
X275796Y35096D01*
X276155Y35120D01*
X276514Y35152D01*
X276872Y35193D01*
X277229Y35242D01*
X277584Y35300D01*
X277938Y35367D01*
X278291Y35442D01*
X278641Y35526D01*
X278989Y35618D01*
X279335Y35718D01*
X279678Y35827D01*
X280019Y35944D01*
X280357Y36069D01*
X280691Y36203D01*
X281023Y36344D01*
X281351Y36493D01*
X281675Y36651D01*
X281995Y36816D01*
X282311Y36988D01*
X282623Y37168D01*
X282930Y37356D01*
X283233Y37551D01*
X283531Y37754D01*
X283824Y37963D01*
X284112Y38179D01*
X284395Y38403D01*
X284672Y38633D01*
X284943Y38870D01*
X285209Y39113D01*
X285469Y39362D01*
X285722Y39618D01*
X285970Y39880D01*
X286211Y40148D01*
X286445Y40421D01*
X286673Y40700D01*
X286894Y40984D01*
X286780Y41070D01*
X286561Y40788D01*
X286335Y40512D01*
X286103Y40241D01*
X285864Y39976D01*
X285619Y39717D01*
X285368Y39464D01*
X285111Y39217D01*
X284848Y38976D01*
X284579Y38742D01*
X284304Y38514D01*
X284025Y38293D01*
X283739Y38078D01*
X283449Y37871D01*
X283154Y37670D01*
X282854Y37477D01*
X282550Y37291D01*
X282241Y37113D01*
X281928Y36942D01*
X281611Y36779D01*
X281290Y36623D01*
X280965Y36475D01*
X280637Y36335D01*
X280306Y36203D01*
X279971Y36079D01*
X279634Y35963D01*
X279294Y35855D01*
X278951Y35756D01*
X278606Y35665D01*
X278259Y35582D01*
X277911Y35507D01*
X277560Y35441D01*
X277208Y35384D01*
X276855Y35335D01*
X276500Y35294D01*
X276145Y35262D01*
X275789Y35239D01*
X275433Y35224D01*
X275076Y35218D01*
X275076Y35361D01*
X275429Y35367D01*
X275782Y35382D01*
X276135Y35405D01*
X276486Y35437D01*
X276837Y35477D01*
X277187Y35525D01*
X277536Y35582D01*
X277883Y35648D01*
X278228Y35721D01*
X278572Y35803D01*
X278913Y35894D01*
X279253Y35992D01*
X279589Y36099D01*
X279923Y36214D01*
X280255Y36337D01*
X280583Y36467D01*
X280908Y36606D01*
X281229Y36752D01*
X281547Y36906D01*
X281861Y37068D01*
X282171Y37238D01*
X282477Y37414D01*
X282778Y37598D01*
X283075Y37790D01*
X283367Y37988D01*
X283655Y38193D01*
X283937Y38406D01*
X284214Y38625D01*
X284486Y38850D01*
X284752Y39082D01*
X285013Y39321D01*
X285267Y39565D01*
X285516Y39816D01*
X285759Y40073D01*
X285995Y40335D01*
X286225Y40603D01*
X286449Y40877D01*
X286665Y41156D01*
X274924Y65925D02*
X274924Y64553D01*
X274924Y64554D02*
X274570Y64548D01*
X274217Y64533D01*
X273864Y64510D01*
X273512Y64478D01*
X273160Y64437D01*
X272810Y64388D01*
X272461Y64331D01*
X272113Y64265D01*
X271767Y64190D01*
X271423Y64108D01*
X271082Y64017D01*
X270742Y63917D01*
X270405Y63810D01*
X270071Y63694D01*
X269739Y63570D01*
X269411Y63438D01*
X269086Y63298D01*
X268765Y63151D01*
X268447Y62995D01*
X268133Y62832D01*
X267823Y62661D01*
X267518Y62483D01*
X267216Y62298D01*
X266920Y62105D01*
X266628Y61905D01*
X266341Y61698D01*
X266059Y61484D01*
X265783Y61263D01*
X265512Y61036D01*
X265247Y60802D01*
X264987Y60562D01*
X264733Y60316D01*
X264485Y60063D01*
X264244Y59804D01*
X264009Y59540D01*
X263780Y59270D01*
X263558Y58995D01*
X262476Y59837D01*
X262475Y59837D01*
X262718Y60139D01*
X262969Y60435D01*
X263226Y60724D01*
X263490Y61008D01*
X263762Y61284D01*
X264039Y61554D01*
X264324Y61818D01*
X264614Y62074D01*
X264911Y62323D01*
X265214Y62565D01*
X265523Y62799D01*
X265837Y63026D01*
X266156Y63245D01*
X266481Y63456D01*
X266811Y63659D01*
X267146Y63855D01*
X267485Y64042D01*
X267829Y64220D01*
X268177Y64390D01*
X268529Y64552D01*
X268885Y64705D01*
X269245Y64850D01*
X269608Y64985D01*
X269974Y65112D01*
X270343Y65230D01*
X270715Y65339D01*
X271089Y65438D01*
X271466Y65529D01*
X271845Y65610D01*
X272226Y65682D01*
X272608Y65745D01*
X272992Y65799D01*
X273377Y65843D01*
X273763Y65878D01*
X274149Y65903D01*
X274536Y65919D01*
X274924Y65926D01*
X274924Y65783D01*
X274540Y65776D01*
X274156Y65760D01*
X273773Y65735D01*
X273391Y65701D01*
X273009Y65657D01*
X272629Y65604D01*
X272250Y65542D01*
X271873Y65470D01*
X271498Y65389D01*
X271124Y65300D01*
X270753Y65201D01*
X270385Y65093D01*
X270019Y64976D01*
X269656Y64851D01*
X269296Y64716D01*
X268940Y64573D01*
X268587Y64422D01*
X268238Y64261D01*
X267893Y64093D01*
X267553Y63916D01*
X267216Y63730D01*
X266885Y63537D01*
X266558Y63335D01*
X266236Y63126D01*
X265919Y62909D01*
X265608Y62684D01*
X265302Y62452D01*
X265002Y62212D01*
X264708Y61966D01*
X264420Y61712D01*
X264138Y61451D01*
X263863Y61183D01*
X263594Y60909D01*
X263332Y60628D01*
X263077Y60341D01*
X262829Y60048D01*
X262588Y59749D01*
X262701Y59661D01*
X262940Y59958D01*
X263185Y60248D01*
X263438Y60532D01*
X263698Y60811D01*
X263964Y61082D01*
X264237Y61347D01*
X264516Y61606D01*
X264801Y61857D01*
X265093Y62102D01*
X265390Y62339D01*
X265693Y62570D01*
X266002Y62792D01*
X266316Y63007D01*
X266634Y63215D01*
X266958Y63414D01*
X267287Y63606D01*
X267620Y63789D01*
X267958Y63965D01*
X268300Y64132D01*
X268645Y64291D01*
X268995Y64441D01*
X269348Y64583D01*
X269704Y64716D01*
X270064Y64841D01*
X270426Y64956D01*
X270791Y65063D01*
X271159Y65161D01*
X271529Y65250D01*
X271901Y65330D01*
X272275Y65401D01*
X272650Y65462D01*
X273027Y65515D01*
X273405Y65558D01*
X273784Y65593D01*
X274163Y65618D01*
X274544Y65633D01*
X274924Y65640D01*
X274924Y65497D01*
X274547Y65490D01*
X274170Y65475D01*
X273794Y65450D01*
X273419Y65416D01*
X273044Y65373D01*
X272671Y65321D01*
X272299Y65260D01*
X271929Y65190D01*
X271560Y65110D01*
X271194Y65022D01*
X270830Y64925D01*
X270468Y64819D01*
X270109Y64705D01*
X269753Y64582D01*
X269399Y64450D01*
X269050Y64309D01*
X268703Y64160D01*
X268361Y64003D01*
X268022Y63837D01*
X267688Y63663D01*
X267358Y63482D01*
X267032Y63292D01*
X266711Y63094D01*
X266395Y62888D01*
X266084Y62675D01*
X265779Y62455D01*
X265478Y62227D01*
X265184Y61992D01*
X264895Y61749D01*
X264612Y61500D01*
X264336Y61244D01*
X264065Y60981D01*
X263801Y60712D01*
X263544Y60437D01*
X263294Y60155D01*
X263050Y59867D01*
X262814Y59574D01*
X262927Y59486D01*
X263161Y59777D01*
X263402Y60062D01*
X263650Y60341D01*
X263905Y60614D01*
X264167Y60880D01*
X264434Y61141D01*
X264708Y61394D01*
X264989Y61641D01*
X265275Y61881D01*
X265566Y62114D01*
X265864Y62340D01*
X266167Y62559D01*
X266475Y62770D01*
X266788Y62973D01*
X267106Y63169D01*
X267428Y63357D01*
X267755Y63537D01*
X268087Y63710D01*
X268422Y63874D01*
X268761Y64029D01*
X269104Y64177D01*
X269451Y64316D01*
X269801Y64447D01*
X270154Y64569D01*
X270509Y64683D01*
X270868Y64787D01*
X271229Y64884D01*
X271592Y64971D01*
X271957Y65049D01*
X272324Y65119D01*
X272692Y65180D01*
X273062Y65231D01*
X273433Y65274D01*
X273805Y65307D01*
X274177Y65332D01*
X274551Y65347D01*
X274924Y65354D01*
X274924Y65211D01*
X274554Y65204D01*
X274184Y65189D01*
X273815Y65165D01*
X273447Y65132D01*
X273079Y65089D01*
X272713Y65038D01*
X272348Y64978D01*
X271985Y64909D01*
X271623Y64831D01*
X271263Y64745D01*
X270906Y64650D01*
X270551Y64546D01*
X270199Y64433D01*
X269849Y64312D01*
X269503Y64183D01*
X269159Y64045D01*
X268820Y63899D01*
X268483Y63744D01*
X268151Y63582D01*
X267823Y63411D01*
X267499Y63233D01*
X267179Y63046D01*
X266864Y62852D01*
X266554Y62651D01*
X266249Y62442D01*
X265949Y62225D01*
X265655Y62002D01*
X265366Y61771D01*
X265082Y61533D01*
X264805Y61288D01*
X264533Y61037D01*
X264268Y60779D01*
X264009Y60515D01*
X263756Y60245D01*
X263511Y59968D01*
X263272Y59686D01*
X263040Y59398D01*
X263152Y59310D01*
X263382Y59596D01*
X263619Y59875D01*
X263863Y60149D01*
X264113Y60417D01*
X264369Y60678D01*
X264632Y60934D01*
X264901Y61183D01*
X265176Y61425D01*
X265456Y61660D01*
X265743Y61889D01*
X266034Y62111D01*
X266332Y62325D01*
X266634Y62532D01*
X266941Y62732D01*
X267253Y62924D01*
X267569Y63108D01*
X267890Y63285D01*
X268215Y63454D01*
X268545Y63615D01*
X268878Y63768D01*
X269214Y63913D01*
X269554Y64049D01*
X269897Y64178D01*
X270244Y64298D01*
X270593Y64409D01*
X270944Y64512D01*
X271298Y64606D01*
X271654Y64692D01*
X272013Y64769D01*
X272373Y64837D01*
X272734Y64897D01*
X273097Y64947D01*
X273461Y64989D01*
X273826Y65022D01*
X274192Y65046D01*
X274558Y65062D01*
X274924Y65068D01*
X274924Y64925D01*
X274561Y64919D01*
X274199Y64903D01*
X273836Y64880D01*
X273475Y64847D01*
X273115Y64805D01*
X272755Y64755D01*
X272397Y64696D01*
X272041Y64629D01*
X271686Y64552D01*
X271333Y64468D01*
X270982Y64374D01*
X270634Y64272D01*
X270288Y64162D01*
X269946Y64043D01*
X269606Y63916D01*
X269269Y63781D01*
X268936Y63637D01*
X268606Y63486D01*
X268280Y63327D01*
X267958Y63159D01*
X267640Y62984D01*
X267327Y62801D01*
X267018Y62611D01*
X266713Y62413D01*
X266414Y62208D01*
X266120Y61996D01*
X265831Y61776D01*
X265547Y61550D01*
X265269Y61317D01*
X264997Y61077D01*
X264731Y60830D01*
X264470Y60577D01*
X264216Y60318D01*
X263969Y60053D01*
X263728Y59782D01*
X263493Y59505D01*
X263265Y59222D01*
X263378Y59135D01*
X263604Y59415D01*
X263836Y59689D01*
X264075Y59957D01*
X264320Y60220D01*
X264572Y60476D01*
X264829Y60727D01*
X265093Y60971D01*
X265363Y61209D01*
X265638Y61439D01*
X265919Y61664D01*
X266205Y61881D01*
X266497Y62091D01*
X266793Y62294D01*
X267094Y62490D01*
X267400Y62679D01*
X267711Y62860D01*
X268025Y63033D01*
X268344Y63199D01*
X268667Y63357D01*
X268994Y63507D01*
X269324Y63649D01*
X269657Y63783D01*
X269994Y63908D01*
X270333Y64026D01*
X270676Y64135D01*
X271021Y64236D01*
X271368Y64329D01*
X271717Y64413D01*
X272069Y64488D01*
X272422Y64555D01*
X272776Y64614D01*
X273132Y64664D01*
X273489Y64705D01*
X273847Y64737D01*
X274206Y64761D01*
X274565Y64776D01*
X274924Y64782D01*
X274924Y64639D01*
X274568Y64633D01*
X274213Y64618D01*
X273858Y64594D01*
X273503Y64562D01*
X273150Y64522D01*
X272797Y64472D01*
X272446Y64415D01*
X272097Y64348D01*
X271749Y64273D01*
X271403Y64190D01*
X271059Y64098D01*
X270717Y63999D01*
X270378Y63890D01*
X270042Y63774D01*
X269709Y63649D01*
X269379Y63517D01*
X269052Y63376D01*
X268728Y63227D01*
X268409Y63071D01*
X268093Y62907D01*
X267781Y62735D01*
X267474Y62556D01*
X267171Y62370D01*
X266873Y62176D01*
X266579Y61974D01*
X266290Y61766D01*
X266007Y61551D01*
X265729Y61329D01*
X265456Y61100D01*
X265189Y60865D01*
X264928Y60623D01*
X264673Y60376D01*
X264424Y60121D01*
X264181Y59861D01*
X263944Y59596D01*
X263714Y59324D01*
X263491Y59047D01*
X287524Y59837D02*
X286441Y58994D01*
X286442Y58995D02*
X286220Y59270D01*
X285991Y59540D01*
X285756Y59804D01*
X285515Y60063D01*
X285267Y60316D01*
X285013Y60562D01*
X284753Y60802D01*
X284488Y61036D01*
X284217Y61263D01*
X283941Y61484D01*
X283659Y61698D01*
X283372Y61905D01*
X283080Y62105D01*
X282784Y62298D01*
X282482Y62483D01*
X282177Y62661D01*
X281867Y62832D01*
X281553Y62995D01*
X281235Y63151D01*
X280914Y63298D01*
X280589Y63438D01*
X280261Y63570D01*
X279929Y63694D01*
X279595Y63810D01*
X279258Y63917D01*
X278918Y64017D01*
X278577Y64108D01*
X278233Y64190D01*
X277887Y64265D01*
X277539Y64331D01*
X277190Y64388D01*
X276840Y64437D01*
X276488Y64478D01*
X276136Y64510D01*
X275783Y64533D01*
X275430Y64548D01*
X275076Y64554D01*
X275076Y65925D01*
X275076Y65926D01*
X275464Y65919D01*
X275851Y65903D01*
X276237Y65878D01*
X276623Y65843D01*
X277008Y65799D01*
X277392Y65745D01*
X277774Y65682D01*
X278155Y65610D01*
X278534Y65529D01*
X278911Y65438D01*
X279285Y65339D01*
X279657Y65230D01*
X280026Y65112D01*
X280392Y64985D01*
X280755Y64850D01*
X281115Y64705D01*
X281471Y64552D01*
X281823Y64390D01*
X282171Y64220D01*
X282515Y64042D01*
X282854Y63855D01*
X283189Y63659D01*
X283519Y63456D01*
X283844Y63245D01*
X284163Y63026D01*
X284477Y62799D01*
X284786Y62565D01*
X285089Y62323D01*
X285386Y62074D01*
X285676Y61818D01*
X285961Y61554D01*
X286238Y61284D01*
X286510Y61008D01*
X286774Y60724D01*
X287031Y60435D01*
X287282Y60139D01*
X287525Y59837D01*
X287412Y59749D01*
X287171Y60048D01*
X286923Y60341D01*
X286668Y60628D01*
X286406Y60909D01*
X286137Y61183D01*
X285862Y61451D01*
X285580Y61712D01*
X285292Y61966D01*
X284998Y62212D01*
X284698Y62452D01*
X284392Y62684D01*
X284081Y62909D01*
X283764Y63126D01*
X283442Y63335D01*
X283115Y63537D01*
X282784Y63730D01*
X282447Y63916D01*
X282107Y64093D01*
X281762Y64261D01*
X281413Y64422D01*
X281060Y64573D01*
X280704Y64716D01*
X280344Y64851D01*
X279981Y64976D01*
X279615Y65093D01*
X279247Y65201D01*
X278876Y65300D01*
X278502Y65389D01*
X278127Y65470D01*
X277750Y65542D01*
X277371Y65604D01*
X276991Y65657D01*
X276609Y65701D01*
X276227Y65735D01*
X275844Y65760D01*
X275460Y65776D01*
X275076Y65783D01*
X275076Y65640D01*
X275456Y65633D01*
X275837Y65618D01*
X276216Y65593D01*
X276595Y65558D01*
X276973Y65515D01*
X277350Y65462D01*
X277725Y65401D01*
X278099Y65330D01*
X278471Y65250D01*
X278841Y65161D01*
X279209Y65063D01*
X279574Y64956D01*
X279936Y64841D01*
X280296Y64716D01*
X280652Y64583D01*
X281005Y64441D01*
X281355Y64291D01*
X281700Y64132D01*
X282042Y63965D01*
X282380Y63789D01*
X282713Y63606D01*
X283042Y63414D01*
X283366Y63215D01*
X283684Y63007D01*
X283998Y62792D01*
X284307Y62570D01*
X284610Y62339D01*
X284907Y62102D01*
X285199Y61857D01*
X285484Y61606D01*
X285763Y61347D01*
X286036Y61082D01*
X286302Y60811D01*
X286562Y60532D01*
X286815Y60248D01*
X287060Y59958D01*
X287299Y59661D01*
X287186Y59574D01*
X286950Y59867D01*
X286706Y60155D01*
X286456Y60437D01*
X286199Y60712D01*
X285935Y60981D01*
X285664Y61244D01*
X285388Y61500D01*
X285105Y61749D01*
X284816Y61992D01*
X284522Y62227D01*
X284221Y62455D01*
X283916Y62675D01*
X283605Y62888D01*
X283289Y63094D01*
X282968Y63292D01*
X282642Y63482D01*
X282312Y63663D01*
X281978Y63837D01*
X281639Y64003D01*
X281297Y64160D01*
X280950Y64309D01*
X280601Y64450D01*
X280247Y64582D01*
X279891Y64705D01*
X279532Y64819D01*
X279170Y64925D01*
X278806Y65022D01*
X278440Y65110D01*
X278071Y65190D01*
X277701Y65260D01*
X277329Y65321D01*
X276956Y65373D01*
X276581Y65416D01*
X276206Y65450D01*
X275830Y65475D01*
X275453Y65490D01*
X275076Y65497D01*
X275076Y65354D01*
X275449Y65347D01*
X275823Y65332D01*
X276195Y65307D01*
X276567Y65274D01*
X276938Y65231D01*
X277308Y65180D01*
X277676Y65119D01*
X278043Y65049D01*
X278408Y64971D01*
X278771Y64884D01*
X279132Y64787D01*
X279491Y64683D01*
X279846Y64569D01*
X280199Y64447D01*
X280549Y64316D01*
X280896Y64177D01*
X281239Y64029D01*
X281578Y63874D01*
X281913Y63710D01*
X282245Y63537D01*
X282572Y63357D01*
X282894Y63169D01*
X283212Y62973D01*
X283525Y62770D01*
X283833Y62559D01*
X284136Y62340D01*
X284434Y62114D01*
X284725Y61881D01*
X285011Y61641D01*
X285292Y61394D01*
X285566Y61141D01*
X285833Y60880D01*
X286095Y60614D01*
X286350Y60341D01*
X286598Y60062D01*
X286839Y59777D01*
X287073Y59486D01*
X286960Y59398D01*
X286728Y59686D01*
X286489Y59968D01*
X286244Y60245D01*
X285991Y60515D01*
X285732Y60779D01*
X285467Y61037D01*
X285195Y61288D01*
X284918Y61533D01*
X284634Y61771D01*
X284345Y62002D01*
X284051Y62225D01*
X283751Y62442D01*
X283446Y62651D01*
X283136Y62852D01*
X282821Y63046D01*
X282501Y63233D01*
X282177Y63411D01*
X281849Y63582D01*
X281517Y63744D01*
X281180Y63899D01*
X280841Y64045D01*
X280497Y64183D01*
X280151Y64312D01*
X279801Y64433D01*
X279449Y64546D01*
X279094Y64650D01*
X278737Y64745D01*
X278377Y64831D01*
X278015Y64909D01*
X277652Y64978D01*
X277287Y65038D01*
X276921Y65089D01*
X276553Y65132D01*
X276185Y65165D01*
X275816Y65189D01*
X275446Y65204D01*
X275076Y65211D01*
X275076Y65068D01*
X275442Y65062D01*
X275808Y65046D01*
X276174Y65022D01*
X276539Y64989D01*
X276903Y64947D01*
X277266Y64897D01*
X277627Y64837D01*
X277987Y64769D01*
X278346Y64692D01*
X278702Y64606D01*
X279056Y64512D01*
X279407Y64409D01*
X279756Y64298D01*
X280103Y64178D01*
X280446Y64049D01*
X280786Y63913D01*
X281122Y63768D01*
X281455Y63615D01*
X281785Y63454D01*
X282110Y63285D01*
X282431Y63108D01*
X282747Y62924D01*
X283059Y62732D01*
X283366Y62532D01*
X283668Y62325D01*
X283966Y62111D01*
X284257Y61889D01*
X284544Y61660D01*
X284824Y61425D01*
X285099Y61183D01*
X285368Y60934D01*
X285631Y60678D01*
X285887Y60417D01*
X286137Y60149D01*
X286381Y59875D01*
X286618Y59596D01*
X286848Y59310D01*
X286735Y59222D01*
X286507Y59505D01*
X286272Y59782D01*
X286031Y60053D01*
X285784Y60318D01*
X285530Y60577D01*
X285269Y60830D01*
X285003Y61077D01*
X284731Y61317D01*
X284453Y61550D01*
X284169Y61776D01*
X283880Y61996D01*
X283586Y62208D01*
X283287Y62413D01*
X282982Y62611D01*
X282673Y62801D01*
X282360Y62984D01*
X282042Y63159D01*
X281720Y63327D01*
X281394Y63486D01*
X281064Y63637D01*
X280731Y63781D01*
X280394Y63916D01*
X280054Y64043D01*
X279712Y64162D01*
X279366Y64272D01*
X279018Y64374D01*
X278667Y64468D01*
X278314Y64552D01*
X277959Y64629D01*
X277603Y64696D01*
X277245Y64755D01*
X276885Y64805D01*
X276525Y64847D01*
X276164Y64880D01*
X275801Y64903D01*
X275439Y64919D01*
X275076Y64925D01*
X275076Y64782D01*
X275435Y64776D01*
X275794Y64761D01*
X276153Y64737D01*
X276511Y64705D01*
X276868Y64664D01*
X277224Y64614D01*
X277578Y64555D01*
X277931Y64488D01*
X278283Y64413D01*
X278632Y64329D01*
X278979Y64236D01*
X279324Y64135D01*
X279667Y64026D01*
X280006Y63908D01*
X280343Y63783D01*
X280676Y63649D01*
X281006Y63507D01*
X281333Y63357D01*
X281656Y63199D01*
X281975Y63033D01*
X282289Y62860D01*
X282600Y62679D01*
X282906Y62490D01*
X283207Y62294D01*
X283503Y62091D01*
X283795Y61881D01*
X284081Y61664D01*
X284362Y61439D01*
X284637Y61209D01*
X284907Y60971D01*
X285171Y60727D01*
X285428Y60476D01*
X285680Y60220D01*
X285925Y59957D01*
X286164Y59689D01*
X286396Y59415D01*
X286622Y59135D01*
X286509Y59047D01*
X286286Y59324D01*
X286056Y59596D01*
X285819Y59861D01*
X285576Y60121D01*
X285327Y60376D01*
X285072Y60623D01*
X284811Y60865D01*
X284544Y61100D01*
X284271Y61329D01*
X283993Y61551D01*
X283710Y61766D01*
X283421Y61974D01*
X283127Y62176D01*
X282829Y62370D01*
X282526Y62556D01*
X282219Y62735D01*
X281907Y62907D01*
X281591Y63071D01*
X281272Y63227D01*
X280948Y63376D01*
X280621Y63517D01*
X280291Y63649D01*
X279958Y63774D01*
X279622Y63890D01*
X279283Y63999D01*
X278941Y64098D01*
X278597Y64190D01*
X278251Y64273D01*
X277903Y64348D01*
X277554Y64415D01*
X277203Y64472D01*
X276850Y64522D01*
X276497Y64562D01*
X276142Y64594D01*
X275787Y64618D01*
X275432Y64633D01*
X275076Y64639D01*
D62*
X258594Y36162D02*
X260350Y37626D01*
X260350Y37625D02*
X260651Y37278D01*
X260960Y36938D01*
X261277Y36605D01*
X261602Y36280D01*
X261934Y35963D01*
X262274Y35654D01*
X262622Y35353D01*
X262976Y35060D01*
X263338Y34777D01*
X263706Y34502D01*
X264081Y34235D01*
X264462Y33978D01*
X264849Y33730D01*
X265241Y33492D01*
X265640Y33263D01*
X266044Y33043D01*
X266452Y32833D01*
X266866Y32633D01*
X267285Y32443D01*
X267708Y32264D01*
X268135Y32094D01*
X268566Y31935D01*
X269001Y31786D01*
X269439Y31647D01*
X269880Y31519D01*
X270325Y31402D01*
X270772Y31295D01*
X271221Y31199D01*
X271673Y31114D01*
X272126Y31040D01*
X272582Y30976D01*
X273038Y30924D01*
X273496Y30882D01*
X273954Y30852D01*
X274414Y30832D01*
X274873Y30823D01*
X274874Y28538D01*
X274873Y28537D01*
X274358Y28547D01*
X273843Y28568D01*
X273329Y28602D01*
X272816Y28648D01*
X272304Y28707D01*
X271794Y28778D01*
X271285Y28861D01*
X270779Y28956D01*
X270275Y29064D01*
X269774Y29183D01*
X269276Y29314D01*
X268781Y29458D01*
X268290Y29613D01*
X267802Y29780D01*
X267319Y29959D01*
X266840Y30149D01*
X266366Y30350D01*
X265897Y30563D01*
X265433Y30787D01*
X264974Y31022D01*
X264522Y31269D01*
X264075Y31525D01*
X263635Y31793D01*
X263201Y32071D01*
X262774Y32359D01*
X262354Y32658D01*
X261942Y32967D01*
X261536Y33285D01*
X261139Y33613D01*
X260750Y33950D01*
X260369Y34297D01*
X259996Y34653D01*
X259632Y35017D01*
X259277Y35390D01*
X258931Y35772D01*
X258594Y36162D01*
X258778Y36316D01*
X259111Y35930D01*
X259453Y35553D01*
X259805Y35184D01*
X260165Y34824D01*
X260533Y34472D01*
X260910Y34129D01*
X261295Y33796D01*
X261688Y33471D01*
X262088Y33157D01*
X262496Y32852D01*
X262911Y32556D01*
X263333Y32271D01*
X263762Y31996D01*
X264198Y31732D01*
X264639Y31478D01*
X265087Y31235D01*
X265540Y31002D01*
X265998Y30781D01*
X266462Y30570D01*
X266931Y30371D01*
X267405Y30183D01*
X267882Y30006D01*
X268364Y29841D01*
X268850Y29688D01*
X269339Y29546D01*
X269832Y29416D01*
X270327Y29298D01*
X270825Y29192D01*
X271326Y29097D01*
X271829Y29015D01*
X272333Y28945D01*
X272839Y28887D01*
X273347Y28842D01*
X273855Y28808D01*
X274364Y28787D01*
X274873Y28777D01*
X274873Y29017D01*
X274370Y29026D01*
X273867Y29048D01*
X273364Y29081D01*
X272863Y29126D01*
X272362Y29183D01*
X271864Y29253D01*
X271367Y29334D01*
X270872Y29427D01*
X270379Y29532D01*
X269890Y29649D01*
X269403Y29777D01*
X268919Y29917D01*
X268439Y30069D01*
X267963Y30232D01*
X267490Y30407D01*
X267022Y30593D01*
X266559Y30790D01*
X266100Y30998D01*
X265647Y31217D01*
X265199Y31447D01*
X264756Y31687D01*
X264320Y31938D01*
X263890Y32200D01*
X263466Y32472D01*
X263048Y32753D01*
X262638Y33045D01*
X262235Y33347D01*
X261839Y33658D01*
X261450Y33978D01*
X261070Y34308D01*
X260697Y34647D01*
X260333Y34994D01*
X259977Y35351D01*
X259630Y35715D01*
X259292Y36088D01*
X258962Y36469D01*
X259147Y36623D01*
X259472Y36246D01*
X259807Y35878D01*
X260150Y35517D01*
X260502Y35165D01*
X260862Y34822D01*
X261230Y34487D01*
X261606Y34161D01*
X261990Y33844D01*
X262381Y33537D01*
X262780Y33239D01*
X263186Y32950D01*
X263598Y32672D01*
X264017Y32403D01*
X264442Y32145D01*
X264874Y31897D01*
X265311Y31659D01*
X265754Y31432D01*
X266202Y31215D01*
X266655Y31010D01*
X267113Y30815D01*
X267576Y30631D01*
X268043Y30459D01*
X268514Y30297D01*
X268988Y30147D01*
X269466Y30009D01*
X269947Y29882D01*
X270431Y29766D01*
X270918Y29663D01*
X271407Y29570D01*
X271899Y29490D01*
X272391Y29422D01*
X272886Y29365D01*
X273382Y29320D01*
X273878Y29287D01*
X274376Y29266D01*
X274873Y29257D01*
X274873Y29497D01*
X274381Y29506D01*
X273890Y29527D01*
X273399Y29560D01*
X272909Y29604D01*
X272421Y29660D01*
X271933Y29728D01*
X271448Y29807D01*
X270965Y29898D01*
X270484Y30001D01*
X270005Y30115D01*
X269530Y30240D01*
X269057Y30377D01*
X268588Y30525D01*
X268123Y30685D01*
X267662Y30855D01*
X267204Y31037D01*
X266752Y31229D01*
X266304Y31433D01*
X265861Y31646D01*
X265423Y31871D01*
X264991Y32106D01*
X264565Y32351D01*
X264145Y32607D01*
X263730Y32872D01*
X263323Y33147D01*
X262922Y33432D01*
X262528Y33727D01*
X262141Y34031D01*
X261762Y34344D01*
X261390Y34666D01*
X261026Y34997D01*
X260670Y35336D01*
X260323Y35684D01*
X259983Y36040D01*
X259653Y36404D01*
X259331Y36777D01*
X259516Y36930D01*
X259833Y36563D01*
X260160Y36203D01*
X260495Y35851D01*
X260839Y35507D01*
X261190Y35171D01*
X261550Y34845D01*
X261917Y34526D01*
X262292Y34217D01*
X262675Y33917D01*
X263064Y33626D01*
X263460Y33344D01*
X263863Y33072D01*
X264272Y32810D01*
X264687Y32558D01*
X265109Y32315D01*
X265536Y32083D01*
X265968Y31861D01*
X266406Y31650D01*
X266848Y31449D01*
X267296Y31259D01*
X267747Y31079D01*
X268203Y30911D01*
X268663Y30753D01*
X269126Y30607D01*
X269593Y30472D01*
X270063Y30348D01*
X270536Y30235D01*
X271011Y30133D01*
X271489Y30044D01*
X271968Y29965D01*
X272450Y29898D01*
X272933Y29843D01*
X273417Y29799D01*
X273902Y29767D01*
X274387Y29746D01*
X274873Y29737D01*
X274873Y29977D01*
X274393Y29986D01*
X273913Y30007D01*
X273434Y30038D01*
X272956Y30082D01*
X272479Y30136D01*
X272003Y30203D01*
X271529Y30280D01*
X271058Y30369D01*
X270588Y30469D01*
X270121Y30581D01*
X269657Y30703D01*
X269195Y30837D01*
X268738Y30982D01*
X268283Y31137D01*
X267833Y31304D01*
X267387Y31481D01*
X266945Y31669D01*
X266507Y31867D01*
X266075Y32076D01*
X265648Y32295D01*
X265226Y32525D01*
X264810Y32764D01*
X264399Y33013D01*
X263995Y33272D01*
X263597Y33541D01*
X263206Y33819D01*
X262821Y34107D01*
X262443Y34403D01*
X262073Y34709D01*
X261710Y35023D01*
X261355Y35346D01*
X261007Y35678D01*
X260668Y36017D01*
X260337Y36365D01*
X260014Y36721D01*
X259700Y37084D01*
X259884Y37237D01*
X260195Y36879D01*
X260513Y36528D01*
X260841Y36184D01*
X261176Y35849D01*
X261519Y35521D01*
X261870Y35202D01*
X262229Y34892D01*
X262595Y34590D01*
X262968Y34297D01*
X263348Y34013D01*
X263734Y33738D01*
X264127Y33473D01*
X264527Y33217D01*
X264932Y32970D01*
X265343Y32734D01*
X265760Y32507D01*
X266182Y32291D01*
X266609Y32085D01*
X267041Y31889D01*
X267478Y31703D01*
X267919Y31528D01*
X268363Y31363D01*
X268812Y31210D01*
X269264Y31067D01*
X269720Y30935D01*
X270179Y30813D01*
X270640Y30703D01*
X271104Y30604D01*
X271570Y30517D01*
X272038Y30440D01*
X272508Y30375D01*
X272979Y30320D01*
X273452Y30278D01*
X273925Y30246D01*
X274399Y30226D01*
X274873Y30217D01*
X274873Y30457D01*
X274405Y30466D01*
X273937Y30486D01*
X273469Y30517D01*
X273003Y30559D01*
X272537Y30613D01*
X272073Y30677D01*
X271611Y30753D01*
X271150Y30840D01*
X270692Y30938D01*
X270236Y31046D01*
X269784Y31166D01*
X269334Y31297D01*
X268887Y31438D01*
X268444Y31590D01*
X268004Y31752D01*
X267569Y31925D01*
X267138Y32108D01*
X266711Y32302D01*
X266289Y32506D01*
X265872Y32720D01*
X265461Y32943D01*
X265055Y33177D01*
X264654Y33420D01*
X264260Y33673D01*
X263871Y33935D01*
X263490Y34206D01*
X263114Y34487D01*
X262746Y34776D01*
X262384Y35074D01*
X262030Y35381D01*
X261684Y35696D01*
X261344Y36019D01*
X261013Y36351D01*
X260690Y36690D01*
X260375Y37037D01*
X260069Y37391D01*
X260253Y37545D01*
X260556Y37195D01*
X260867Y36852D01*
X261186Y36517D01*
X261513Y36190D01*
X261848Y35871D01*
X262190Y35560D01*
X262540Y35257D01*
X262897Y34963D01*
X263261Y34677D01*
X263631Y34400D01*
X264009Y34132D01*
X264392Y33873D01*
X264782Y33623D01*
X265177Y33383D01*
X265578Y33153D01*
X265985Y32932D01*
X266396Y32721D01*
X266813Y32519D01*
X267234Y32328D01*
X267660Y32147D01*
X268090Y31976D01*
X268524Y31816D01*
X268962Y31666D01*
X269403Y31526D01*
X269847Y31398D01*
X270294Y31279D01*
X270744Y31172D01*
X271197Y31075D01*
X271651Y30990D01*
X272108Y30915D01*
X272566Y30851D01*
X273026Y30798D01*
X273487Y30756D01*
X273948Y30726D01*
X274411Y30706D01*
X274873Y30697D01*
X275126Y28538D02*
X275126Y30824D01*
X275127Y30823D02*
X275592Y30832D01*
X276057Y30852D01*
X276521Y30883D01*
X276984Y30926D01*
X277446Y30980D01*
X277907Y31045D01*
X278366Y31121D01*
X278823Y31208D01*
X279278Y31306D01*
X279730Y31416D01*
X280180Y31536D01*
X280626Y31667D01*
X281069Y31809D01*
X281509Y31962D01*
X281944Y32125D01*
X282376Y32299D01*
X282803Y32483D01*
X283226Y32677D01*
X283644Y32882D01*
X284057Y33097D01*
X284464Y33322D01*
X284866Y33556D01*
X285262Y33800D01*
X285652Y34054D01*
X286036Y34317D01*
X286413Y34590D01*
X286783Y34871D01*
X287147Y35161D01*
X287503Y35460D01*
X287852Y35768D01*
X288194Y36084D01*
X288528Y36408D01*
X288853Y36741D01*
X289171Y37081D01*
X289480Y37428D01*
X289781Y37783D01*
X290073Y38145D01*
X290356Y38515D01*
X290630Y38891D01*
X290895Y39273D01*
X291151Y39662D01*
X291397Y40057D01*
X291633Y40458D01*
X291860Y40864D01*
X293877Y39789D01*
X293877Y39788D01*
X293623Y39333D01*
X293359Y38883D01*
X293083Y38441D01*
X292797Y38005D01*
X292500Y37576D01*
X292194Y37154D01*
X291876Y36740D01*
X291549Y36334D01*
X291212Y35936D01*
X290866Y35547D01*
X290510Y35165D01*
X290145Y34793D01*
X289771Y34430D01*
X289389Y34075D01*
X288998Y33730D01*
X288598Y33395D01*
X288191Y33070D01*
X287776Y32754D01*
X287353Y32449D01*
X286923Y32154D01*
X286486Y31870D01*
X286042Y31596D01*
X285592Y31333D01*
X285135Y31081D01*
X284673Y30841D01*
X284204Y30611D01*
X283731Y30393D01*
X283252Y30187D01*
X282768Y29992D01*
X282280Y29810D01*
X281787Y29639D01*
X281290Y29480D01*
X280790Y29333D01*
X280286Y29198D01*
X279779Y29076D01*
X279270Y28966D01*
X278757Y28869D01*
X278243Y28784D01*
X277726Y28711D01*
X277209Y28651D01*
X276689Y28604D01*
X276169Y28569D01*
X275648Y28547D01*
X275127Y28537D01*
X275127Y28777D01*
X275642Y28787D01*
X276157Y28809D01*
X276672Y28843D01*
X277185Y28890D01*
X277697Y28949D01*
X278208Y29021D01*
X278716Y29105D01*
X279223Y29202D01*
X279727Y29310D01*
X280228Y29431D01*
X280726Y29564D01*
X281221Y29709D01*
X281712Y29867D01*
X282199Y30036D01*
X282681Y30216D01*
X283160Y30409D01*
X283633Y30613D01*
X284102Y30828D01*
X284565Y31055D01*
X285022Y31293D01*
X285473Y31542D01*
X285919Y31802D01*
X286357Y32072D01*
X286790Y32353D01*
X287215Y32645D01*
X287633Y32947D01*
X288043Y33259D01*
X288446Y33581D01*
X288841Y33912D01*
X289227Y34253D01*
X289606Y34603D01*
X289975Y34963D01*
X290336Y35331D01*
X290688Y35708D01*
X291031Y36093D01*
X291364Y36487D01*
X291687Y36888D01*
X292001Y37297D01*
X292304Y37714D01*
X292597Y38138D01*
X292880Y38569D01*
X293153Y39007D01*
X293414Y39451D01*
X293665Y39901D01*
X293454Y40014D01*
X293206Y39569D01*
X292947Y39130D01*
X292678Y38697D01*
X292398Y38271D01*
X292108Y37852D01*
X291808Y37440D01*
X291498Y37036D01*
X291178Y36639D01*
X290849Y36250D01*
X290510Y35869D01*
X290162Y35496D01*
X289806Y35132D01*
X289440Y34777D01*
X289066Y34431D01*
X288684Y34094D01*
X288294Y33766D01*
X287895Y33448D01*
X287490Y33140D01*
X287076Y32841D01*
X286656Y32553D01*
X286229Y32275D01*
X285795Y32007D01*
X285355Y31751D01*
X284909Y31504D01*
X284457Y31269D01*
X283999Y31045D01*
X283536Y30832D01*
X283068Y30630D01*
X282595Y30440D01*
X282118Y30261D01*
X281636Y30094D01*
X281151Y29939D01*
X280662Y29796D01*
X280169Y29664D01*
X279674Y29544D01*
X279176Y29437D01*
X278675Y29342D01*
X278172Y29258D01*
X277668Y29187D01*
X277161Y29129D01*
X276654Y29082D01*
X276145Y29048D01*
X275636Y29027D01*
X275127Y29017D01*
X275127Y29257D01*
X275630Y29267D01*
X276134Y29288D01*
X276636Y29322D01*
X277138Y29368D01*
X277638Y29426D01*
X278137Y29496D01*
X278634Y29578D01*
X279129Y29672D01*
X279621Y29779D01*
X280111Y29897D01*
X280598Y30027D01*
X281081Y30169D01*
X281561Y30322D01*
X282037Y30487D01*
X282509Y30664D01*
X282976Y30852D01*
X283438Y31051D01*
X283896Y31262D01*
X284349Y31484D01*
X284795Y31716D01*
X285237Y31959D01*
X285672Y32213D01*
X286100Y32478D01*
X286523Y32752D01*
X286938Y33037D01*
X287346Y33332D01*
X287748Y33637D01*
X288141Y33951D01*
X288527Y34275D01*
X288905Y34608D01*
X289275Y34951D01*
X289636Y35302D01*
X289988Y35662D01*
X290332Y36030D01*
X290667Y36406D01*
X290992Y36791D01*
X291308Y37183D01*
X291615Y37583D01*
X291911Y37990D01*
X292198Y38404D01*
X292475Y38825D01*
X292741Y39253D01*
X292997Y39687D01*
X293242Y40127D01*
X293030Y40240D01*
X292788Y39805D01*
X292535Y39376D01*
X292272Y38954D01*
X291998Y38537D01*
X291715Y38128D01*
X291422Y37726D01*
X291119Y37331D01*
X290807Y36943D01*
X290485Y36563D01*
X290154Y36191D01*
X289814Y35827D01*
X289466Y35471D01*
X289109Y35124D01*
X288744Y34786D01*
X288370Y34457D01*
X287989Y34137D01*
X287600Y33826D01*
X287203Y33525D01*
X286800Y33234D01*
X286389Y32952D01*
X285972Y32680D01*
X285548Y32419D01*
X285118Y32168D01*
X284682Y31928D01*
X284241Y31698D01*
X283793Y31479D01*
X283341Y31271D01*
X282884Y31074D01*
X282422Y30888D01*
X281956Y30713D01*
X281486Y30550D01*
X281011Y30398D01*
X280534Y30258D01*
X280053Y30130D01*
X279569Y30013D01*
X279082Y29908D01*
X278593Y29814D01*
X278102Y29733D01*
X277609Y29664D01*
X277114Y29606D01*
X276619Y29561D01*
X276122Y29528D01*
X275624Y29507D01*
X275127Y29497D01*
X275127Y29737D01*
X275618Y29746D01*
X276110Y29767D01*
X276601Y29800D01*
X277091Y29845D01*
X277579Y29902D01*
X278067Y29971D01*
X278552Y30051D01*
X279035Y30143D01*
X279516Y30247D01*
X279994Y30362D01*
X280470Y30489D01*
X280942Y30628D01*
X281410Y30778D01*
X281875Y30939D01*
X282336Y31112D01*
X282792Y31296D01*
X283244Y31490D01*
X283691Y31696D01*
X284133Y31912D01*
X284569Y32139D01*
X285000Y32377D01*
X285425Y32625D01*
X285843Y32883D01*
X286256Y33151D01*
X286661Y33430D01*
X287060Y33718D01*
X287452Y34015D01*
X287836Y34322D01*
X288213Y34639D01*
X288582Y34964D01*
X288943Y35298D01*
X289296Y35641D01*
X289641Y35992D01*
X289976Y36352D01*
X290303Y36720D01*
X290621Y37095D01*
X290930Y37478D01*
X291229Y37868D01*
X291519Y38266D01*
X291799Y38671D01*
X292069Y39082D01*
X292329Y39499D01*
X292579Y39923D01*
X292818Y40353D01*
X292606Y40466D01*
X292370Y40041D01*
X292123Y39623D01*
X291866Y39210D01*
X291599Y38804D01*
X291322Y38404D01*
X291036Y38011D01*
X290740Y37626D01*
X290435Y37247D01*
X290121Y36876D01*
X289798Y36513D01*
X289467Y36158D01*
X289126Y35811D01*
X288778Y35472D01*
X288421Y35142D01*
X288056Y34820D01*
X287684Y34508D01*
X287304Y34204D01*
X286917Y33910D01*
X286523Y33626D01*
X286122Y33351D01*
X285715Y33086D01*
X285301Y32831D01*
X284881Y32586D01*
X284456Y32351D01*
X284025Y32127D01*
X283588Y31913D01*
X283146Y31710D01*
X282700Y31517D01*
X282249Y31336D01*
X281794Y31165D01*
X281335Y31006D01*
X280872Y30858D01*
X280406Y30721D01*
X279936Y30595D01*
X279463Y30481D01*
X278988Y30378D01*
X278511Y30287D01*
X278031Y30208D01*
X277550Y30140D01*
X277067Y30084D01*
X276583Y30040D01*
X276098Y30007D01*
X275613Y29986D01*
X275127Y29977D01*
X275127Y30217D01*
X275607Y30226D01*
X276086Y30247D01*
X276565Y30279D01*
X277044Y30323D01*
X277521Y30378D01*
X277996Y30445D01*
X278470Y30524D01*
X278941Y30614D01*
X279411Y30715D01*
X279878Y30828D01*
X280341Y30952D01*
X280802Y31087D01*
X281259Y31234D01*
X281713Y31391D01*
X282163Y31560D01*
X282608Y31739D01*
X283049Y31929D01*
X283485Y32130D01*
X283917Y32341D01*
X284343Y32563D01*
X284763Y32794D01*
X285178Y33036D01*
X285586Y33289D01*
X285989Y33550D01*
X286385Y33822D01*
X286774Y34103D01*
X287157Y34394D01*
X287532Y34693D01*
X287900Y35002D01*
X288260Y35319D01*
X288612Y35646D01*
X288956Y35980D01*
X289293Y36323D01*
X289620Y36674D01*
X289939Y37033D01*
X290250Y37399D01*
X290551Y37773D01*
X290843Y38154D01*
X291126Y38542D01*
X291399Y38937D01*
X291663Y39338D01*
X291917Y39746D01*
X292161Y40159D01*
X292395Y40579D01*
X292183Y40692D01*
X291952Y40278D01*
X291711Y39869D01*
X291460Y39466D01*
X291200Y39070D01*
X290930Y38680D01*
X290650Y38297D01*
X290362Y37921D01*
X290064Y37551D01*
X289758Y37189D01*
X289442Y36835D01*
X289119Y36488D01*
X288787Y36150D01*
X288446Y35819D01*
X288098Y35497D01*
X287743Y35183D01*
X287379Y34879D01*
X287009Y34583D01*
X286631Y34296D01*
X286247Y34018D01*
X285855Y33750D01*
X285458Y33491D01*
X285054Y33242D01*
X284645Y33003D01*
X284229Y32774D01*
X283809Y32555D01*
X283383Y32347D01*
X282952Y32148D01*
X282516Y31961D01*
X282076Y31783D01*
X281632Y31617D01*
X281184Y31462D01*
X280732Y31317D01*
X280277Y31183D01*
X279819Y31061D01*
X279358Y30949D01*
X278895Y30849D01*
X278429Y30760D01*
X277961Y30683D01*
X277491Y30617D01*
X277020Y30562D01*
X276548Y30518D01*
X276075Y30487D01*
X275601Y30466D01*
X275127Y30457D01*
X275127Y30697D01*
X275595Y30706D01*
X276063Y30726D01*
X276530Y30758D01*
X276997Y30801D01*
X277462Y30855D01*
X277926Y30920D01*
X278388Y30997D01*
X278848Y31085D01*
X279306Y31184D01*
X279761Y31294D01*
X280213Y31415D01*
X280663Y31547D01*
X281109Y31689D01*
X281551Y31843D01*
X281990Y32007D01*
X282424Y32182D01*
X282854Y32368D01*
X283280Y32563D01*
X283701Y32770D01*
X284116Y32986D01*
X284526Y33212D01*
X284931Y33448D01*
X285329Y33694D01*
X285722Y33949D01*
X286108Y34214D01*
X286488Y34488D01*
X286861Y34772D01*
X287227Y35064D01*
X287586Y35365D01*
X287937Y35675D01*
X288281Y35993D01*
X288617Y36319D01*
X288945Y36654D01*
X289264Y36996D01*
X289576Y37346D01*
X289879Y37703D01*
X290172Y38068D01*
X290458Y38440D01*
X290733Y38818D01*
X291000Y39203D01*
X291257Y39595D01*
X291505Y39992D01*
X291743Y40396D01*
X291971Y40805D01*
X274874Y71462D02*
X274874Y69176D01*
X274873Y69177D02*
X274405Y69168D01*
X273937Y69147D01*
X273469Y69116D01*
X273002Y69073D01*
X272537Y69018D01*
X272073Y68952D01*
X271611Y68875D01*
X271151Y68787D01*
X270693Y68687D01*
X270237Y68576D01*
X269785Y68454D01*
X269336Y68321D01*
X268890Y68177D01*
X268447Y68023D01*
X268009Y67857D01*
X267575Y67681D01*
X267145Y67494D01*
X266720Y67297D01*
X266300Y67090D01*
X265885Y66872D01*
X265475Y66644D01*
X265071Y66407D01*
X264673Y66159D01*
X264282Y65902D01*
X263896Y65635D01*
X263517Y65359D01*
X263146Y65074D01*
X262781Y64780D01*
X262423Y64477D01*
X262073Y64165D01*
X261731Y63845D01*
X261397Y63517D01*
X261071Y63181D01*
X260753Y62836D01*
X260443Y62484D01*
X258699Y63961D01*
X258698Y63961D01*
X259045Y64356D01*
X259401Y64742D01*
X259766Y65119D01*
X260141Y65488D01*
X260524Y65847D01*
X260917Y66196D01*
X261317Y66536D01*
X261726Y66866D01*
X262143Y67186D01*
X262567Y67495D01*
X262999Y67794D01*
X263438Y68083D01*
X263884Y68360D01*
X264337Y68627D01*
X264796Y68882D01*
X265261Y69126D01*
X265732Y69359D01*
X266209Y69580D01*
X266691Y69789D01*
X267178Y69987D01*
X267669Y70172D01*
X268165Y70346D01*
X268665Y70507D01*
X269169Y70656D01*
X269676Y70792D01*
X270187Y70916D01*
X270700Y71028D01*
X271216Y71127D01*
X271734Y71213D01*
X272254Y71287D01*
X272776Y71347D01*
X273299Y71395D01*
X273823Y71431D01*
X274348Y71453D01*
X274873Y71463D01*
X274873Y71223D01*
X274354Y71213D01*
X273835Y71191D01*
X273317Y71156D01*
X272800Y71109D01*
X272284Y71048D01*
X271770Y70976D01*
X271257Y70890D01*
X270747Y70793D01*
X270240Y70682D01*
X269735Y70560D01*
X269233Y70425D01*
X268735Y70277D01*
X268241Y70118D01*
X267751Y69947D01*
X267265Y69763D01*
X266784Y69568D01*
X266307Y69361D01*
X265836Y69143D01*
X265370Y68913D01*
X264910Y68671D01*
X264457Y68419D01*
X264009Y68155D01*
X263568Y67881D01*
X263134Y67596D01*
X262707Y67300D01*
X262287Y66994D01*
X261875Y66678D01*
X261471Y66352D01*
X261075Y66016D01*
X260687Y65670D01*
X260308Y65315D01*
X259938Y64951D01*
X259576Y64578D01*
X259224Y64196D01*
X258881Y63806D01*
X259065Y63651D01*
X259403Y64037D01*
X259751Y64414D01*
X260109Y64783D01*
X260475Y65143D01*
X260850Y65494D01*
X261233Y65835D01*
X261625Y66167D01*
X262024Y66490D01*
X262431Y66802D01*
X262846Y67105D01*
X263268Y67397D01*
X263698Y67679D01*
X264134Y67950D01*
X264576Y68211D01*
X265025Y68460D01*
X265479Y68699D01*
X265940Y68926D01*
X266405Y69142D01*
X266876Y69347D01*
X267352Y69540D01*
X267833Y69721D01*
X268317Y69890D01*
X268806Y70048D01*
X269298Y70193D01*
X269794Y70327D01*
X270293Y70448D01*
X270795Y70557D01*
X271299Y70654D01*
X271805Y70738D01*
X272314Y70810D01*
X272824Y70870D01*
X273335Y70917D01*
X273847Y70951D01*
X274360Y70973D01*
X274873Y70983D01*
X274873Y70743D01*
X274366Y70733D01*
X273859Y70712D01*
X273353Y70677D01*
X272847Y70631D01*
X272343Y70572D01*
X271841Y70501D01*
X271340Y70418D01*
X270842Y70322D01*
X270346Y70214D01*
X269853Y70094D01*
X269363Y69962D01*
X268876Y69818D01*
X268393Y69663D01*
X267914Y69495D01*
X267439Y69316D01*
X266969Y69125D01*
X266504Y68923D01*
X266043Y68710D01*
X265588Y68485D01*
X265139Y68249D01*
X264695Y68002D01*
X264258Y67745D01*
X263827Y67477D01*
X263403Y67198D01*
X262986Y66910D01*
X262576Y66611D01*
X262173Y66302D01*
X261778Y65983D01*
X261391Y65655D01*
X261012Y65317D01*
X260642Y64970D01*
X260280Y64615D01*
X259927Y64250D01*
X259583Y63877D01*
X259248Y63496D01*
X259431Y63341D01*
X259762Y63718D01*
X260102Y64086D01*
X260451Y64446D01*
X260809Y64798D01*
X261175Y65141D01*
X261549Y65474D01*
X261932Y65799D01*
X262322Y66114D01*
X262720Y66419D01*
X263125Y66714D01*
X263538Y67000D01*
X263957Y67275D01*
X264383Y67540D01*
X264815Y67794D01*
X265253Y68038D01*
X265697Y68271D01*
X266147Y68493D01*
X266602Y68704D01*
X267062Y68904D01*
X267527Y69092D01*
X267996Y69270D01*
X268469Y69435D01*
X268947Y69589D01*
X269428Y69731D01*
X269912Y69862D01*
X270399Y69980D01*
X270889Y70087D01*
X271382Y70181D01*
X271876Y70264D01*
X272373Y70334D01*
X272871Y70392D01*
X273371Y70438D01*
X273871Y70472D01*
X274372Y70493D01*
X274873Y70503D01*
X274873Y70263D01*
X274378Y70253D01*
X273883Y70232D01*
X273388Y70199D01*
X272895Y70153D01*
X272403Y70096D01*
X271912Y70026D01*
X271423Y69945D01*
X270937Y69851D01*
X270452Y69746D01*
X269971Y69629D01*
X269492Y69500D01*
X269017Y69360D01*
X268545Y69207D01*
X268078Y69044D01*
X267614Y68869D01*
X267155Y68683D01*
X266700Y68485D01*
X266251Y68277D01*
X265806Y68057D01*
X265368Y67827D01*
X264934Y67586D01*
X264507Y67335D01*
X264087Y67073D01*
X263672Y66801D01*
X263265Y66519D01*
X262864Y66227D01*
X262471Y65925D01*
X262086Y65614D01*
X261708Y65294D01*
X261338Y64964D01*
X260976Y64626D01*
X260622Y64278D01*
X260277Y63922D01*
X259941Y63558D01*
X259614Y63186D01*
X259797Y63031D01*
X260121Y63399D01*
X260453Y63758D01*
X260793Y64110D01*
X261143Y64453D01*
X261500Y64788D01*
X261866Y65113D01*
X262239Y65430D01*
X262620Y65737D01*
X263009Y66035D01*
X263404Y66324D01*
X263807Y66602D01*
X264216Y66871D01*
X264632Y67130D01*
X265054Y67378D01*
X265482Y67616D01*
X265915Y67843D01*
X266354Y68060D01*
X266799Y68266D01*
X267248Y68461D01*
X267701Y68645D01*
X268159Y68818D01*
X268621Y68980D01*
X269087Y69130D01*
X269557Y69269D01*
X270030Y69396D01*
X270505Y69512D01*
X270984Y69616D01*
X271465Y69708D01*
X271948Y69789D01*
X272432Y69858D01*
X272919Y69915D01*
X273406Y69959D01*
X273895Y69992D01*
X274384Y70014D01*
X274873Y70023D01*
X274873Y69783D01*
X274390Y69774D01*
X273907Y69753D01*
X273424Y69720D01*
X272942Y69676D01*
X272462Y69620D01*
X271983Y69552D01*
X271506Y69472D01*
X271031Y69381D01*
X270559Y69278D01*
X270089Y69164D01*
X269622Y69038D01*
X269158Y68901D01*
X268698Y68752D01*
X268241Y68593D01*
X267789Y68422D01*
X267340Y68240D01*
X266897Y68047D01*
X266458Y67844D01*
X266024Y67630D01*
X265596Y67405D01*
X265173Y67170D01*
X264757Y66925D01*
X264346Y66669D01*
X263942Y66404D01*
X263544Y66128D01*
X263153Y65844D01*
X262769Y65549D01*
X262393Y65246D01*
X262024Y64933D01*
X261663Y64611D01*
X261310Y64281D01*
X260965Y63942D01*
X260628Y63595D01*
X260300Y63239D01*
X259981Y62876D01*
X260164Y62721D01*
X260479Y63080D01*
X260803Y63431D01*
X261136Y63774D01*
X261477Y64108D01*
X261825Y64435D01*
X262182Y64752D01*
X262547Y65061D01*
X262918Y65361D01*
X263297Y65652D01*
X263683Y65933D01*
X264076Y66205D01*
X264476Y66467D01*
X264881Y66719D01*
X265293Y66962D01*
X265710Y67194D01*
X266133Y67416D01*
X266562Y67627D01*
X266995Y67828D01*
X267433Y68019D01*
X267876Y68198D01*
X268323Y68367D01*
X268774Y68525D01*
X269228Y68671D01*
X269686Y68807D01*
X270148Y68931D01*
X270612Y69044D01*
X271079Y69146D01*
X271548Y69236D01*
X272019Y69314D01*
X272492Y69381D01*
X272966Y69437D01*
X273442Y69481D01*
X273919Y69513D01*
X274396Y69534D01*
X274873Y69543D01*
X274873Y69303D01*
X274402Y69294D01*
X273930Y69273D01*
X273460Y69241D01*
X272990Y69198D01*
X272521Y69143D01*
X272054Y69077D01*
X271589Y68999D01*
X271126Y68910D01*
X270665Y68810D01*
X270207Y68698D01*
X269751Y68576D01*
X269299Y68442D01*
X268850Y68297D01*
X268404Y68141D01*
X267963Y67975D01*
X267526Y67797D01*
X267093Y67609D01*
X266665Y67411D01*
X266242Y67202D01*
X265825Y66983D01*
X265412Y66754D01*
X265006Y66514D01*
X264605Y66265D01*
X264211Y66006D01*
X263823Y65738D01*
X263442Y65460D01*
X263067Y65173D01*
X262700Y64877D01*
X262340Y64572D01*
X261988Y64258D01*
X261643Y63936D01*
X261307Y63605D01*
X260979Y63267D01*
X260659Y62920D01*
X260347Y62566D01*
X293572Y60759D02*
X291587Y59624D01*
X291588Y59625D02*
X291350Y60023D01*
X291104Y60415D01*
X290847Y60800D01*
X290582Y61180D01*
X290308Y61553D01*
X290024Y61919D01*
X289732Y62278D01*
X289431Y62630D01*
X289122Y62975D01*
X288805Y63312D01*
X288479Y63642D01*
X288146Y63963D01*
X287805Y64277D01*
X287456Y64582D01*
X287101Y64878D01*
X286738Y65166D01*
X286368Y65445D01*
X285992Y65715D01*
X285609Y65976D01*
X285220Y66227D01*
X284826Y66469D01*
X284425Y66702D01*
X284019Y66924D01*
X283608Y67137D01*
X283191Y67340D01*
X282770Y67533D01*
X282345Y67715D01*
X281915Y67887D01*
X281481Y68049D01*
X281043Y68200D01*
X280602Y68341D01*
X280157Y68471D01*
X279710Y68590D01*
X279260Y68698D01*
X278807Y68796D01*
X278352Y68882D01*
X277895Y68957D01*
X277436Y69022D01*
X276976Y69075D01*
X276515Y69117D01*
X276053Y69148D01*
X275590Y69168D01*
X275127Y69177D01*
X275127Y71462D01*
X275127Y71463D01*
X275646Y71453D01*
X276165Y71431D01*
X276683Y71397D01*
X277200Y71350D01*
X277715Y71291D01*
X278229Y71219D01*
X278741Y71135D01*
X279251Y71038D01*
X279759Y70929D01*
X280263Y70808D01*
X280765Y70675D01*
X281263Y70529D01*
X281758Y70372D01*
X282248Y70202D01*
X282735Y70021D01*
X283217Y69828D01*
X283694Y69624D01*
X284165Y69408D01*
X284632Y69181D01*
X285093Y68942D01*
X285548Y68693D01*
X285997Y68432D01*
X286439Y68161D01*
X286875Y67879D01*
X287304Y67587D01*
X287726Y67284D01*
X288140Y66971D01*
X288546Y66649D01*
X288945Y66316D01*
X289336Y65974D01*
X289718Y65623D01*
X290091Y65263D01*
X290456Y64893D01*
X290811Y64515D01*
X291158Y64129D01*
X291495Y63734D01*
X291822Y63331D01*
X292139Y62921D01*
X292447Y62502D01*
X292744Y62077D01*
X293031Y61644D01*
X293307Y61205D01*
X293572Y60759D01*
X293364Y60640D01*
X293102Y61081D01*
X292828Y61515D01*
X292545Y61943D01*
X292251Y62364D01*
X291947Y62777D01*
X291633Y63183D01*
X291309Y63581D01*
X290976Y63972D01*
X290634Y64354D01*
X290282Y64727D01*
X289922Y65093D01*
X289553Y65449D01*
X289175Y65796D01*
X288789Y66134D01*
X288395Y66463D01*
X287993Y66782D01*
X287583Y67091D01*
X287166Y67390D01*
X286742Y67679D01*
X286311Y67958D01*
X285874Y68226D01*
X285430Y68484D01*
X284980Y68730D01*
X284525Y68966D01*
X284063Y69191D01*
X283597Y69404D01*
X283125Y69607D01*
X282649Y69797D01*
X282168Y69976D01*
X281683Y70144D01*
X281194Y70299D01*
X280701Y70443D01*
X280205Y70575D01*
X279706Y70695D01*
X279205Y70803D01*
X278700Y70898D01*
X278194Y70981D01*
X277686Y71052D01*
X277176Y71111D01*
X276665Y71158D01*
X276153Y71192D01*
X275640Y71213D01*
X275127Y71223D01*
X275127Y70983D01*
X275635Y70973D01*
X276141Y70952D01*
X276648Y70918D01*
X277153Y70872D01*
X277657Y70814D01*
X278159Y70744D01*
X278660Y70662D01*
X279158Y70567D01*
X279654Y70461D01*
X280147Y70342D01*
X280637Y70212D01*
X281124Y70070D01*
X281608Y69916D01*
X282087Y69750D01*
X282563Y69573D01*
X283033Y69385D01*
X283500Y69185D01*
X283961Y68974D01*
X284417Y68752D01*
X284868Y68519D01*
X285312Y68275D01*
X285751Y68020D01*
X286184Y67755D01*
X286609Y67479D01*
X287029Y67194D01*
X287441Y66898D01*
X287846Y66592D01*
X288243Y66277D01*
X288632Y65952D01*
X289014Y65618D01*
X289388Y65275D01*
X289753Y64922D01*
X290109Y64561D01*
X290457Y64192D01*
X290795Y63814D01*
X291124Y63428D01*
X291444Y63035D01*
X291755Y62633D01*
X292055Y62225D01*
X292346Y61809D01*
X292626Y61386D01*
X292896Y60957D01*
X293156Y60521D01*
X292947Y60402D01*
X292691Y60833D01*
X292424Y61257D01*
X292147Y61675D01*
X291859Y62086D01*
X291562Y62490D01*
X291256Y62886D01*
X290939Y63276D01*
X290614Y63657D01*
X290279Y64030D01*
X289936Y64395D01*
X289583Y64752D01*
X289223Y65100D01*
X288853Y65440D01*
X288476Y65770D01*
X288091Y66091D01*
X287698Y66403D01*
X287298Y66705D01*
X286891Y66997D01*
X286477Y67280D01*
X286056Y67552D01*
X285628Y67814D01*
X285194Y68066D01*
X284755Y68307D01*
X284309Y68537D01*
X283859Y68757D01*
X283403Y68965D01*
X282942Y69163D01*
X282476Y69349D01*
X282007Y69524D01*
X281533Y69688D01*
X281055Y69840D01*
X280574Y69980D01*
X280089Y70109D01*
X279601Y70226D01*
X279111Y70332D01*
X278619Y70425D01*
X278124Y70507D01*
X277627Y70576D01*
X277129Y70634D01*
X276630Y70679D01*
X276130Y70712D01*
X275629Y70733D01*
X275127Y70743D01*
X275127Y70503D01*
X275623Y70494D01*
X276118Y70473D01*
X276612Y70440D01*
X277106Y70395D01*
X277598Y70338D01*
X278089Y70269D01*
X278578Y70189D01*
X279065Y70096D01*
X279549Y69992D01*
X280031Y69876D01*
X280510Y69749D01*
X280985Y69610D01*
X281458Y69460D01*
X281926Y69298D01*
X282390Y69125D01*
X282850Y68941D01*
X283306Y68746D01*
X283756Y68540D01*
X284202Y68323D01*
X284642Y68095D01*
X285076Y67857D01*
X285505Y67608D01*
X285928Y67349D01*
X286344Y67080D01*
X286753Y66801D01*
X287156Y66512D01*
X287551Y66213D01*
X287939Y65905D01*
X288320Y65588D01*
X288693Y65261D01*
X289057Y64926D01*
X289414Y64582D01*
X289762Y64229D01*
X290102Y63869D01*
X290433Y63500D01*
X290754Y63123D01*
X291067Y62738D01*
X291370Y62346D01*
X291664Y61947D01*
X291947Y61541D01*
X292221Y61128D01*
X292485Y60709D01*
X292739Y60283D01*
X292531Y60164D01*
X292280Y60584D01*
X292019Y60999D01*
X291748Y61407D01*
X291468Y61808D01*
X291178Y62203D01*
X290878Y62590D01*
X290569Y62970D01*
X290251Y63342D01*
X289925Y63707D01*
X289589Y64063D01*
X289245Y64412D01*
X288892Y64752D01*
X288532Y65083D01*
X288164Y65406D01*
X287787Y65719D01*
X287404Y66024D01*
X287013Y66319D01*
X286615Y66604D01*
X286211Y66880D01*
X285800Y67146D01*
X285382Y67402D01*
X284959Y67648D01*
X284529Y67883D01*
X284094Y68108D01*
X283654Y68322D01*
X283209Y68526D01*
X282759Y68719D01*
X282304Y68901D01*
X281845Y69072D01*
X281383Y69232D01*
X280916Y69380D01*
X280446Y69518D01*
X279973Y69644D01*
X279497Y69758D01*
X279018Y69861D01*
X278537Y69952D01*
X278054Y70032D01*
X277569Y70100D01*
X277082Y70156D01*
X276595Y70200D01*
X276106Y70233D01*
X275617Y70254D01*
X275127Y70263D01*
X275127Y70023D01*
X275611Y70014D01*
X276094Y69993D01*
X276577Y69961D01*
X277059Y69917D01*
X277540Y69861D01*
X278019Y69794D01*
X278496Y69716D01*
X278971Y69625D01*
X279444Y69524D01*
X279915Y69411D01*
X280382Y69286D01*
X280847Y69151D01*
X281308Y69004D01*
X281765Y68846D01*
X282218Y68677D01*
X282667Y68497D01*
X283112Y68307D01*
X283552Y68105D01*
X283987Y67893D01*
X284416Y67671D01*
X284841Y67439D01*
X285259Y67196D01*
X285672Y66943D01*
X286078Y66680D01*
X286478Y66408D01*
X286871Y66126D01*
X287257Y65834D01*
X287636Y65533D01*
X288007Y65224D01*
X288371Y64905D01*
X288727Y64578D01*
X289076Y64242D01*
X289416Y63897D01*
X289747Y63545D01*
X290070Y63185D01*
X290384Y62817D01*
X290689Y62442D01*
X290985Y62059D01*
X291272Y61669D01*
X291549Y61273D01*
X291817Y60870D01*
X292074Y60460D01*
X292322Y60045D01*
X292114Y59926D01*
X291869Y60336D01*
X291614Y60741D01*
X291350Y61139D01*
X291076Y61530D01*
X290793Y61915D01*
X290501Y62293D01*
X290199Y62664D01*
X289889Y63028D01*
X289570Y63383D01*
X289242Y63731D01*
X288906Y64071D01*
X288562Y64403D01*
X288211Y64727D01*
X287851Y65041D01*
X287484Y65347D01*
X287109Y65645D01*
X286728Y65932D01*
X286340Y66211D01*
X285945Y66480D01*
X285544Y66740D01*
X285136Y66990D01*
X284723Y67229D01*
X284304Y67459D01*
X283879Y67679D01*
X283450Y67888D01*
X283015Y68087D01*
X282576Y68275D01*
X282132Y68453D01*
X281684Y68620D01*
X281233Y68776D01*
X280777Y68921D01*
X280318Y69055D01*
X279857Y69178D01*
X279392Y69290D01*
X278925Y69390D01*
X278455Y69479D01*
X277984Y69557D01*
X277510Y69623D01*
X277036Y69678D01*
X276560Y69722D01*
X276083Y69753D01*
X275605Y69774D01*
X275127Y69783D01*
X275127Y69543D01*
X275599Y69534D01*
X276071Y69514D01*
X276542Y69482D01*
X277012Y69439D01*
X277481Y69385D01*
X277949Y69319D01*
X278414Y69243D01*
X278878Y69155D01*
X279340Y69055D01*
X279798Y68945D01*
X280255Y68824D01*
X280708Y68691D01*
X281158Y68548D01*
X281604Y68394D01*
X282046Y68229D01*
X282484Y68054D01*
X282918Y67868D01*
X283347Y67671D01*
X283772Y67464D01*
X284191Y67247D01*
X284605Y67020D01*
X285013Y66784D01*
X285416Y66537D01*
X285812Y66280D01*
X286202Y66015D01*
X286586Y65739D01*
X286962Y65455D01*
X287332Y65162D01*
X287695Y64859D01*
X288050Y64548D01*
X288397Y64229D01*
X288737Y63901D01*
X289069Y63565D01*
X289392Y63222D01*
X289708Y62870D01*
X290014Y62511D01*
X290312Y62145D01*
X290601Y61772D01*
X290881Y61392D01*
X291151Y61005D01*
X291412Y60611D01*
X291664Y60212D01*
X291905Y59807D01*
X291697Y59687D01*
X291458Y60088D01*
X291210Y60482D01*
X290952Y60871D01*
X290685Y61253D01*
X290409Y61628D01*
X290123Y61997D01*
X289829Y62359D01*
X289526Y62713D01*
X289215Y63060D01*
X288896Y63399D01*
X288568Y63731D01*
X288232Y64055D01*
X287889Y64370D01*
X287538Y64677D01*
X287180Y64976D01*
X286815Y65265D01*
X286443Y65546D01*
X286064Y65818D01*
X285679Y66081D01*
X285288Y66334D01*
X284890Y66577D01*
X284487Y66811D01*
X284078Y67036D01*
X283664Y67250D01*
X283245Y67454D01*
X282821Y67648D01*
X282393Y67832D01*
X281960Y68005D01*
X281523Y68168D01*
X281083Y68320D01*
X280638Y68461D01*
X280191Y68592D01*
X279740Y68712D01*
X279287Y68821D01*
X278831Y68919D01*
X278373Y69006D01*
X277913Y69082D01*
X277452Y69147D01*
X276989Y69200D01*
X276524Y69243D01*
X276059Y69274D01*
X275594Y69294D01*
X275127Y69303D01*
D56*
X293542Y32728D02*
X300908Y32728D01*
X297352Y28918D02*
X297352Y36792D01*
X298504Y393087D02*
X242496Y393087D01*
X242496Y427313D02*
X298504Y427313D01*
D63*
X286500Y402200D02*
X254500Y402200D01*
X254500Y418200D02*
X286500Y418200D01*
D64*
X270500Y410200D03*
D65*
X271000Y410200D03*
D56*
X48451Y187461D02*
X48519Y186828D01*
X48602Y186198D01*
X48701Y185570D01*
X48814Y184944D01*
X48942Y184322D01*
X49084Y183702D01*
X49242Y183086D01*
X49414Y182474D01*
X49601Y181866D01*
X49802Y181263D01*
X50017Y180665D01*
X50247Y180072D01*
X50490Y179485D01*
X50748Y178904D01*
X51019Y178329D01*
X51304Y177760D01*
X51603Y177199D01*
X51915Y176645D01*
X52240Y176098D01*
X52577Y175560D01*
X52928Y175030D01*
X53291Y174508D01*
X53667Y173995D01*
X54054Y173491D01*
X48451Y187460D02*
X48397Y188109D01*
X48359Y188758D01*
X48337Y189409D01*
X48330Y190060D01*
X48339Y190711D01*
X48365Y191361D01*
X48406Y192011D01*
X48463Y192659D01*
X48536Y193306D01*
X48624Y193951D01*
X48729Y194594D01*
X48849Y195234D01*
X48984Y195870D01*
X49135Y196504D01*
X49302Y197133D01*
X49483Y197758D01*
X49680Y198379D01*
X49892Y198994D01*
X50119Y199604D01*
X50361Y200209D01*
X50618Y200807D01*
X50889Y201399D01*
X51174Y201984D01*
X51474Y202562D01*
X51787Y203132D01*
X52115Y203695D01*
X52456Y204249D01*
X52810Y204795D01*
X53178Y205332D01*
X53559Y205861D01*
X53952Y206379D01*
X54358Y206888D01*
X54776Y207387D01*
X55207Y207875D01*
X55649Y208353D01*
X56103Y208820D01*
X56568Y209275D01*
X57044Y209719D01*
X57530Y210152D01*
X58027Y210572D01*
X58534Y210980D01*
X59051Y211376D01*
X59578Y211759D01*
X60114Y212129D01*
X60658Y212486D01*
X61211Y212829D01*
X61772Y213159D01*
X62342Y213475D01*
X62918Y213777D01*
X63502Y214064D01*
X64093Y214338D01*
X64690Y214597D01*
X65294Y214841D01*
X65903Y215071D01*
X66517Y215285D01*
X67137Y215485D01*
X82863Y215485D02*
X83478Y215286D01*
X84089Y215074D01*
X84694Y214846D01*
X85293Y214604D01*
X85886Y214347D01*
X86473Y214076D01*
X87053Y213791D01*
X87626Y213492D01*
X88192Y213179D01*
X88750Y212852D01*
X89300Y212512D01*
X89841Y212159D01*
X90374Y211793D01*
X90897Y211414D01*
X91412Y211022D01*
X91916Y210619D01*
X92411Y210202D01*
X92896Y209775D01*
X93370Y209335D01*
X93833Y208884D01*
X94285Y208422D01*
X94726Y207949D01*
X95155Y207466D01*
X95572Y206972D01*
X95978Y206469D01*
X96371Y205956D01*
X96751Y205433D01*
X97119Y204901D01*
X97473Y204361D01*
X97815Y203812D01*
X98143Y203255D01*
X98457Y202690D01*
X98758Y202118D01*
X99045Y201539D01*
X99317Y200952D01*
X99576Y200360D01*
X99819Y199761D01*
X100049Y199157D01*
X100263Y198547D01*
X100463Y197932D01*
X100648Y197313D01*
X100818Y196689D01*
X100972Y196061D01*
X101111Y195430D01*
X101235Y194796D01*
X101344Y194158D01*
X101437Y193519D01*
X101514Y192877D01*
X101576Y192234D01*
X101623Y191589D01*
X101653Y190943D01*
X101668Y190297D01*
X101668Y189651D01*
X101651Y189004D01*
X101619Y188359D01*
X101572Y187714D01*
X101509Y187071D01*
X101430Y186429D01*
X101336Y185790D01*
X101226Y185153D01*
X101101Y184518D01*
X100960Y183887D01*
X100804Y183260D01*
X100633Y182637D01*
X100447Y182018D01*
X100246Y181403D01*
X100031Y180794D01*
X99800Y180190D01*
X99555Y179592D01*
X99296Y179000D01*
X99022Y178414D01*
X98734Y177835D01*
X98432Y177264D01*
X98117Y176699D01*
X97788Y176143D01*
X97445Y175595D01*
X97089Y175055D01*
X96721Y174524D01*
X96339Y174002D01*
X95945Y173490D01*
X54055Y173490D01*
X52463Y187460D02*
X48451Y187460D01*
X72137Y187460D02*
X77863Y187460D01*
X97537Y187460D02*
X101549Y187460D01*
M02*
