G04 EAGLE Gerber RS-274X export*
G75*
%MOMM*%
%FSLAX34Y34*%
%LPD*%
%INSolderpaste Top*%
%IPPOS*%
%AMOC8*
5,1,8,0,0,1.08239X$1,22.5*%
G01*
%ADD10R,1.600000X1.800000*%
%ADD11R,1.100000X1.000000*%
%ADD12R,1.800000X1.600000*%
%ADD13R,1.000000X1.100000*%
%ADD14R,2.200000X0.600000*%
%ADD15R,2.286000X2.794000*%


D10*
X252900Y377500D03*
X280900Y377500D03*
D11*
X52400Y147200D03*
X69400Y147200D03*
D10*
X159900Y375300D03*
X131900Y375300D03*
D11*
X267300Y354000D03*
X284300Y354000D03*
D12*
X480500Y359600D03*
X480500Y331600D03*
X390500Y360100D03*
X390500Y332100D03*
D11*
X484100Y246000D03*
X501100Y246000D03*
X153500Y150200D03*
X170500Y150200D03*
D10*
X460100Y246300D03*
X432100Y246300D03*
D13*
X29800Y94800D03*
X29800Y111800D03*
D14*
X136000Y118850D03*
X188000Y118850D03*
X136000Y131550D03*
X136000Y106150D03*
X136000Y93450D03*
X188000Y131550D03*
X188000Y106150D03*
X188000Y93450D03*
D11*
X220200Y415700D03*
X220200Y398700D03*
D13*
X180600Y398000D03*
X197600Y398000D03*
X147100Y398000D03*
X164100Y398000D03*
X479900Y306000D03*
X462900Y306000D03*
X391000Y306200D03*
X408000Y306200D03*
X410000Y246000D03*
X393000Y246000D03*
D11*
X30000Y129900D03*
X30000Y146900D03*
D13*
X69800Y121800D03*
X52800Y121800D03*
X69600Y95800D03*
X52600Y95800D03*
X169800Y177000D03*
X152800Y177000D03*
D11*
X135400Y164200D03*
X118400Y164200D03*
X135400Y190000D03*
X118400Y190000D03*
D13*
X135400Y214800D03*
X118400Y214800D03*
X135400Y240600D03*
X118400Y240600D03*
D10*
X74200Y240100D03*
X46200Y240100D03*
D13*
X283500Y86400D03*
X266500Y86400D03*
D15*
X290960Y410200D03*
X250040Y410200D03*
M02*
