M48
;GenerationSoftware,Autodesk,EAGLE,9.6.2*%
;CreationDate,2021-12-15T20:54:37Z*%
FMAT,2
ICI,OFF
METRIC,TZ,000.000
T7C0.350
T6C0.813
T5C0.900
T4C1.000
T3C1.118
T2C1.400
T1C2.200
%
G90
M71
T1
X2600Y34000
X11400Y34000
X23100Y34000
X31900Y34000
X43600Y34000
X52400Y34000
T2
X11000Y4000
X35000Y41000
X52000Y4000
X3000Y4000
X7000Y4000
X48000Y4000
X40000Y41000
X15000Y4000
T3
X19250Y26370
X19250Y36530
T4
X48000Y27000
X50500Y27000
X45500Y27000
X30000Y27000
X27500Y27000
X25000Y27000
X9500Y27000
X7000Y27000
X4500Y27000
T5
X34230Y19590
X34230Y24670
X36970Y19540
X36970Y24620
T6
X28770Y5000
X26230Y5000
X8770Y19000
X7500Y20905
X6230Y19000
T7
X18500Y19100
X17000Y10100
X28800Y22600
X25800Y20600
X28500Y18400
X21400Y25500
X22900Y23600
X26200Y30800
X20040Y32120
X21600Y37600
X30600Y29600
X23100Y29500
X31900Y38500
X36400Y29700
X35800Y36200
X37600Y43700
X29900Y43900
X20200Y42800
X17000Y43800
X17200Y41100
X53600Y43800
X44900Y43300
X44900Y38400
X41600Y37100
X40800Y33200
X46200Y32600
X50900Y30000
X50700Y38100
X48300Y39700
X53700Y26600
X43200Y20700
X1000Y8000
X41600Y26000
X47400Y23900
X36400Y15900
X49400Y18900
X42400Y15900
X45400Y18900
X51400Y11900
X46400Y9900
X52400Y20900
X40400Y9900
X34400Y12900
X33400Y3900
X41400Y1900
X30400Y9900
X28400Y11900
X53700Y1200
X45300Y1500
X34900Y1400
X41900Y7400
X48900Y15400
X39900Y22400
X32900Y17400
X32100Y23000
X45100Y13000
X36100Y10000
X7100Y40400
X53100Y16500
X49100Y43300
X20000Y23000
X42000Y28000
X21000Y12000
X24000Y7000
X8300Y12200
X15900Y35500
X1000Y44000
X2400Y40280
X12000Y43000
X7000Y38000
X2000Y37000
X11000Y40000
X8000Y35000
X5000Y31000
X1000Y30000
X2000Y27000
X1000Y22000
X3000Y18000
X1000Y16000
X35500Y26000
X2000Y12000
X9000Y9000
X9000Y2000
X5000Y1000
X13000Y1000
X22000Y5000
X20000Y1000
X25000Y2000
X18000Y6000
X21100Y9300
X16600Y12600
X21800Y17500
X24100Y15300
X21500Y14300
X23000Y12300
X19000Y21300
M30