G04 EAGLE Gerber RS-274X export*
G75*
%MOMM*%
%FSLAX34Y34*%
%LPD*%
%INSoldermask Bottom*%
%IPPOS*%
%AMOC8*
5,1,8,0,0,1.08239X$1,22.5*%
G01*
%ADD10C,1.676400*%
%ADD11R,1.350000X1.350000*%
%ADD12C,1.350000*%
%ADD13C,2.540000*%
%ADD14P,1.814519X8X202.500000*%
%ADD15C,1.500000*%
%ADD16C,3.300000*%
%ADD17P,1.319650X8X22.500000*%


D10*
X192500Y263700D03*
X192500Y365300D03*
D11*
X369700Y246200D03*
D12*
X369700Y195400D03*
D11*
X342300Y195900D03*
D12*
X342300Y246700D03*
D13*
X350000Y397300D02*
X350000Y422700D01*
X520000Y52700D02*
X520000Y27300D01*
X30000Y27300D02*
X30000Y52700D01*
X70000Y52700D02*
X70000Y27300D01*
X480000Y27300D02*
X480000Y52700D01*
X400000Y397300D02*
X400000Y422700D01*
D14*
X287700Y50000D03*
X262300Y50000D03*
D13*
X150000Y52700D02*
X150000Y27300D01*
X110000Y27300D02*
X110000Y52700D01*
D15*
X505000Y270000D03*
X480000Y270000D03*
X455000Y270000D03*
D16*
X524000Y340000D03*
X436000Y340000D03*
D15*
X300000Y270000D03*
X275000Y270000D03*
X250000Y270000D03*
D16*
X319000Y340000D03*
X231000Y340000D03*
D15*
X95000Y270000D03*
X70000Y270000D03*
X45000Y270000D03*
D16*
X114000Y340000D03*
X26000Y340000D03*
D17*
X87700Y190000D03*
X75000Y209050D03*
X62300Y190000D03*
M02*
